<?xml version="1.0" encoding="UTF-8"?>
<svg width="85px" height="16px" viewBox="0 0 85 16" version="1.1" xmlns="http://www.w3.org/2000/svg" xmlns:xlink="http://www.w3.org/1999/xlink">
    <title>New Logo - wordmark</title>
    <g id="Symbols" stroke="none" stroke-width="1" fill="none" fill-rule="evenodd">
        <g id="Footer" transform="translate(-1234.000000, -387.000000)" fill="#818181" fill-rule="nonzero">
            <g id="Designed-by">
                <g transform="translate(1147.000000, 384.000000)">
                    <g id="New-Logo---wordmark" transform="translate(87.000000, 3.000000)">
                        <path d="M0,8.13061224 C0,4.27755102 3.60030805,2.0244898 6.38236427,2.0244898 C8.01886792,2.0244898 9.13169041,2.31836735 9.88448209,2.74285714 L9.81902195,5.2244898 L9.55718136,5.2244898 L9.32807085,4.63673469 C8.83711975,3.29795918 7.95340778,2.41632653 6.31690412,2.41632653 C4.09125915,2.41632653 2.02926454,5.02857143 2.02926454,8.65306122 C2.02926454,11.0040816 3.33846746,12.4081633 5.26954178,12.4081633 C6.48055449,12.4081633 7.49518675,11.6571429 8.5425491,10.1877551 L8.96804005,9.6 L9.22988063,9.6 L8.44435888,12.0163265 C7.46245668,12.5387755 6.34963419,12.8 5.23681171,12.8 C2.16018483,12.8 0,11.0367347 0,8.13061224 Z" id="Path"></path>
                        <polygon id="Path" points="10.9645745 14.8244898 10.5063535 14.5632653 18.1979207 0 18.6234116 0.26122449"></polygon>
                        <path d="M20.5544859,12.6040816 C19.9980747,12.6040816 18.4924913,12.6367347 18.1979207,12.6367347 L18.2633808,12.4081633 L18.8197921,12.3102041 C19.6053138,12.1795918 19.8016943,11.8204082 20.128995,9.99183673 L21.045437,4.76734694 C21.3727378,2.97142857 21.3072776,2.57959184 20.5544859,2.44897959 L20.0308048,2.35102041 L20.0635348,2.12244898 C20.3581055,2.12244898 21.5363881,2.15510204 22.0927994,2.15510204 C22.6492106,2.15510204 23.3365422,2.12244898 24.0238737,2.12244898 C27.5914517,2.12244898 29.7843666,3.7877551 29.7843666,6.69387755 C29.7843666,10.3836735 26.7731998,12.6040816 23.1728918,12.6040816 C21.7327686,12.6693878 21.2745476,12.6040816 20.5544859,12.6040816 Z M27.755102,6.46530612 C27.755102,3.95102041 26.413169,2.54693878 23.9256835,2.54693878 C23.696573,2.54693878 23.4674625,2.57959184 23.2056219,2.6122449 L21.8309588,10.3510204 C21.5691182,11.8530612 21.9618791,12.244898 23.4020023,12.244898 C26.0531382,12.277551 27.755102,9.73061224 27.755102,6.46530612 L27.755102,6.46530612 Z" id="Shape"></path>
                        <path d="M30.0462072,9.66530612 C30.0462072,7.08571429 31.8790913,5.19183673 34.2683866,5.19183673 C36.1340008,5.19183673 37.4104736,6.33469388 37.4104736,8.32653061 C37.4104736,10.9387755 35.5775895,12.8 33.2210243,12.8 C31.3554101,12.8 30.0462072,11.6571429 30.0462072,9.66530612 Z M35.5775895,7.83673469 C35.5775895,6.4 35.0211783,5.58367347 34.1047362,5.58367347 C32.8609935,5.58367347 31.9118213,7.80408163 31.8790913,10.155102 C31.8790913,11.5918367 32.4355025,12.4408163 33.3519446,12.4408163 C34.5956873,12.4081633 35.5775895,10.1877551 35.5775895,7.83673469 Z" id="Shape"></path>
                        <path d="M42.5818252,11.1020408 L43.3346169,7.51020408 C43.400077,7.28163265 43.4328071,7.02040816 43.4328071,6.79183673 C43.4328071,6.53061224 43.3018868,6.30204082 43.0073161,6.30204082 C42.2872545,6.30204082 40.8798614,8 40.3561802,8.94693878 L39.6361186,12.6693878 L37.9341548,12.6693878 L38.9815171,7.21632653 C39.1124374,6.53061224 39.1778976,6.17142857 38.490566,6.04081633 L38.032345,5.94285714 L38.0650751,5.74693878 L40.9125915,5.25714286 L41.0107817,5.45306122 L40.4543704,8.35918367 C41.2398922,7.02040816 42.3527147,5.25714286 43.6619176,5.25714286 C44.5456296,5.25714286 45.1020408,5.74693878 45.1020408,6.66122449 C45.1020408,6.92244898 45.0693107,7.18367347 45.0038506,7.44489796 L44.2510589,10.9714286 C44.0874085,11.6897959 44.1855988,11.9510204 44.5456296,11.9510204 C44.8402002,11.9510204 45.2329611,11.755102 45.7239122,11.3306122 L45.8875626,11.5265306 C45.0693107,12.3755102 44.3165191,12.8 43.6291875,12.8 C42.7127455,12.7673469 42.3199846,12.277551 42.5818252,11.1020408 Z" id="Path"></path>
                        <path d="M50.109742,11.8530612 C50.7643435,11.8530612 51.3862149,11.6571429 51.909896,11.2326531 L52.0735464,11.4285714 C51.3207547,12.277551 50.2079322,12.8 49.0623797,12.8 C47.2949557,12.8 46.0512129,11.722449 46.0512129,9.73061224 C46.0512129,7.31428571 48.0477474,5.15918367 50.2406623,5.15918367 C51.9426261,5.15918367 52.6954178,5.91020408 52.6954178,6.88979592 C52.6954178,8.35918367 50.9607239,9.07755102 47.8186369,9.24081633 C47.851367,11.0693878 48.8332692,11.8530612 50.109742,11.8530612 Z M50.8625337,6.88979592 C50.8952638,6.13877551 50.6006931,5.61632653 49.9788217,5.61632653 C48.9969195,5.61632653 47.9495572,7.18367347 47.851367,9.0122449 C50.2079322,8.71836735 50.7970735,7.96734694 50.8625337,6.88979592 Z" id="Shape"></path>
                        <path d="M57.6049288,11.1020408 L58.3577204,7.51020408 C58.4231806,7.28163265 58.4559107,7.02040816 58.4559107,6.79183673 C58.4559107,6.53061224 58.3249904,6.30204082 58.0304197,6.30204082 C57.3103581,6.30204082 55.902965,8 55.4120139,8.94693878 L54.6919523,12.6693878 L53.0227185,12.6693878 L54.0700809,7.21632653 C54.2010012,6.53061224 54.2664613,6.17142857 53.5463997,6.04081633 L53.0881787,5.94285714 L53.1209087,5.74693878 L56.0011552,5.25714286 L56.0993454,5.45306122 L55.5429342,8.35918367 C56.2957258,7.05306122 57.4412784,5.25714286 58.7504813,5.25714286 C59.6341933,5.25714286 60.1906045,5.74693878 60.1906045,6.66122449 C60.1906045,6.92244898 60.1578745,7.18367347 60.0924143,7.44489796 L59.3396226,10.9714286 C59.1759723,11.6897959 59.2741625,11.9510204 59.6341933,11.9510204 C59.928764,11.9510204 60.3215248,11.755102 60.8124759,11.3306122 L60.9761263,11.5265306 C60.1578745,12.3755102 59.4050828,12.8 58.7177513,12.8 C57.7358491,12.7673469 57.3430882,12.277551 57.6049288,11.1020408 Z" id="Path"></path>
                        <path d="M58.5213708,15.2163265 C58.5213708,14.7265306 58.8486715,14.2367347 59.3068926,14.2367347 C59.6996534,14.2367347 60.2887948,14.6938776 60.5506353,15.2163265 C60.8779361,14.955102 61.1397767,14.1387755 61.3688872,12.6693878 L62.3835194,6.04081633 L61.2052368,6.04081633 L61.2379669,5.74693878 L62.4817097,5.3877551 C62.9072006,2.80816327 64.9364652,1.14285714 66.7038891,1.14285714 C67.5221409,1.14285714 68.0785522,1.43673469 68.0785522,1.95918367 C68.0785522,2.44897959 67.7185214,2.87346939 67.2275703,2.93877551 C66.8020793,2.93877551 66.2783982,2.54693878 65.7219869,1.76326531 C64.9364652,2.12244898 64.4782441,3.2 64.2491336,4.76734694 L64.1509434,5.42040816 L65.8529072,5.42040816 L65.754717,6.07346939 L64.0527532,6.07346939 L63.3326916,10.8081633 C62.9072006,13.877551 61.2052368,16 59.5360031,16 C58.9795918,16 58.5213708,15.7061224 58.5213708,15.2163265 Z" id="Path"></path>
                        <path d="M69.3877551,11.8530612 C70.0423566,11.8530612 70.664228,11.6571429 71.1879091,11.2326531 L71.3515595,11.4285714 C70.5987678,12.277551 69.5186754,12.8 68.3403928,12.8 C66.5729688,12.8 65.329226,11.722449 65.329226,9.73061224 C65.329226,7.31428571 67.3257605,5.15918367 69.5186754,5.15918367 C71.2206392,5.15918367 71.9734309,5.91020408 71.9734309,6.88979592 C71.9734309,8.35918367 70.238737,9.07755102 67.09665,9.24081633 C67.1293801,11.0693878 68.1112822,11.8530612 69.3877551,11.8530612 Z M70.1078167,6.88979592 C70.1405468,6.13877551 69.8459761,5.61632653 69.2241047,5.61632653 C68.2422025,5.61632653 67.1948402,7.18367347 67.09665,9.0122449 C69.4859453,8.71836735 70.0750866,7.96734694 70.1078167,6.88979592 L70.1078167,6.88979592 Z" id="Shape"></path>
                        <path d="M72.5298421,11.2326531 L73.9699653,3.13469388 C74.1008856,2.38367347 73.9699653,2.12244898 73.4135541,1.99183673 L72.9880631,1.92653061 L73.0207932,1.73061224 L75.8355795,1.24081633 L75.9337697,1.43673469 L74.1990759,11.0693878 C74.0681556,11.722449 74.1663458,11.9183673 74.4936465,11.9183673 C74.8209472,11.9183673 75.148248,11.755102 75.7046592,11.2979592 L75.8683096,11.4938776 C75.0827878,12.3102041 74.2972661,12.7673469 73.6099345,12.7673469 C72.6280323,12.7673469 72.3334617,12.1469388 72.5298421,11.2326531 Z" id="Path"></path>
                        <path d="M76.1301502,10.122449 C76.1301502,7.28163265 78.2248749,5.32244898 80.2868695,5.32244898 C80.8105506,5.32244898 81.3342318,5.42040816 81.8251829,5.64897959 L82.2506739,3.2 C82.3815941,2.44897959 82.3488641,2.15510204 81.6942626,1.99183673 L81.3015017,1.89387755 L81.3342318,1.69795918 L84.1490181,1.20816327 L84.2472083,1.40408163 L82.5452445,10.9061224 C82.5125144,11.1020408 82.4797844,11.2979592 82.4797844,11.4612245 C82.4797844,11.8204082 82.6107047,11.8530612 82.8398152,11.8530612 C83.2980362,11.755102 83.6907971,11.5591837 84.0180978,11.2326531 L84.1817482,11.4285714 C83.3634963,12.277551 82.6434347,12.7020408 81.9561032,12.7020408 C81.0069311,12.7020408 80.6469003,12.1469388 80.8760108,10.9714286 L81.0069311,10.4163265 C80.3523296,11.4938776 79.3376973,12.7673469 78.1921448,12.7673469 C76.8829419,12.8 76.1301502,11.6897959 76.1301502,10.122449 Z M81.0723912,9.89387755 L81.3342318,8.5877551 C81.432422,8.19591837 81.4651521,7.77142857 81.4651521,7.37959184 C81.4651521,6.4 81.0723912,5.74693878 80.090489,5.74693878 C78.8140162,5.74693878 77.8975741,7.73877551 77.8975741,9.92653061 C77.8975741,11.2653061 78.2576049,11.8204082 78.8467462,11.8204082 C79.5668079,11.7877551 80.5487101,10.8081633 81.0723912,9.89387755 L81.0723912,9.89387755 Z" id="Shape"></path>
                    </g>
                </g>
            </g>
        </g>
    </g>
</svg>