<?xml version="1.0" encoding="UTF-8"?>
<svg width="871px" height="614px" viewBox="0 0 871 614" version="1.1" xmlns="http://www.w3.org/2000/svg" xmlns:xlink="http://www.w3.org/1999/xlink">
    <title>Asset</title>
    <defs>
        <filter x="-23.1%" y="-41.1%" width="146.3%" height="182.2%" filterUnits="objectBoundingBox" id="filter-1">
            <feOffset dx="0" dy="19" in="SourceAlpha" result="shadowOffsetOuter1"></feOffset>
            <feGaussianBlur stdDeviation="29.5" in="shadowOffsetOuter1" result="shadowBlurOuter1"></feGaussianBlur>
            <feColorMatrix values="0 0 0 0 0   0 0 0 0 0   0 0 0 0 0  0 0 0 0.15 0" type="matrix" in="shadowBlurOuter1" result="shadowMatrixOuter1"></feColorMatrix>
            <feMerge>
                <feMergeNode in="shadowMatrixOuter1"></feMergeNode>
                <feMergeNode in="SourceGraphic"></feMergeNode>
            </feMerge>
        </filter>
        <rect id="path-2" x="0" y="0" width="647.636881" height="364.181761" rx="15.9663946"></rect>
        <linearGradient x1="99.9997747%" y1="49.9902026%" x2="0%" y2="49.9902026%" id="linearGradient-4">
            <stop stop-color="#FD2145" offset="0%"></stop>
            <stop stop-color="#B42145" offset="100%"></stop>
        </linearGradient>
        <linearGradient x1="-4.2420396e-14%" y1="50.0126871%" x2="99.9998447%" y2="50.0126871%" id="linearGradient-5">
            <stop stop-color="#0000E5" offset="0%"></stop>
            <stop stop-color="#000000" offset="0%"></stop>
            <stop stop-color="#000000" stop-opacity="0.3" offset="100%"></stop>
        </linearGradient>
        <filter x="-38.8%" y="-101.2%" width="177.6%" height="302.4%" filterUnits="objectBoundingBox" id="filter-6">
            <feOffset dx="0" dy="18" in="SourceAlpha" result="shadowOffsetOuter1"></feOffset>
            <feGaussianBlur stdDeviation="23.5" in="shadowOffsetOuter1" result="shadowBlurOuter1"></feGaussianBlur>
            <feColorMatrix values="0 0 0 0 0   0 0 0 0 0   0 0 0 0 0  0 0 0 0.1 0" type="matrix" in="shadowBlurOuter1" result="shadowMatrixOuter1"></feColorMatrix>
            <feMerge>
                <feMergeNode in="shadowMatrixOuter1"></feMergeNode>
                <feMergeNode in="SourceGraphic"></feMergeNode>
            </feMerge>
        </filter>
        <filter x="-38.8%" y="-101.2%" width="177.6%" height="302.4%" filterUnits="objectBoundingBox" id="filter-7">
            <feOffset dx="0" dy="18" in="SourceAlpha" result="shadowOffsetOuter1"></feOffset>
            <feGaussianBlur stdDeviation="23.5" in="shadowOffsetOuter1" result="shadowBlurOuter1"></feGaussianBlur>
            <feColorMatrix values="0 0 0 0 0   0 0 0 0 0   0 0 0 0 0  0 0 0 0.1 0" type="matrix" in="shadowBlurOuter1" result="shadowMatrixOuter1"></feColorMatrix>
            <feMerge>
                <feMergeNode in="shadowMatrixOuter1"></feMergeNode>
                <feMergeNode in="SourceGraphic"></feMergeNode>
            </feMerge>
        </filter>
    </defs>
    <g id="Homepage" stroke="none" stroke-width="1" fill="none" fill-rule="evenodd">
        <g transform="translate(-9.000000, -1579.000000)" id="Features">
            <g transform="translate(120.000000, 840.000000)">
                <g id="Asset" transform="translate(0.000000, 850.000000)">
                    <g id="Group-8-Copy" filter="url(#filter-1)" transform="translate(0.627239, 0.000000)">
                        <mask id="mask-3" fill="white">
                            <use xlink:href="#path-2"></use>
                        </mask>
                        <use id="Rectangle" fill="#181D23" xlink:href="#path-2"></use>
                        <rect id="Rectangle-Copy" fill-opacity="0.04" fill="#FFFFFF" mask="url(#mask-3)" x="27.3871497" y="79.3741007" width="79.3741007" height="7.00359712" rx="3.50179856"></rect>
                        <rect id="Rectangle-Copy-21" fill-opacity="0.04" fill="#FFFFFF" mask="url(#mask-3)" x="27.3871497" y="105.053957" width="79.3741007" height="7.00359712" rx="3.50179856"></rect>
                        <rect id="Rectangle-Copy-22" fill-opacity="0.04" fill="#FFFFFF" mask="url(#mask-3)" x="27.3871497" y="130.733813" width="79.3741007" height="7.00359712" rx="3.50179856"></rect>
                        <rect id="Rectangle-Copy-23" fill-opacity="0.04" fill="#FFFFFF" mask="url(#mask-3)" x="27.3871497" y="156.413669" width="79.3741007" height="7.00359712" rx="3.50179856"></rect>
                        <rect id="Rectangle-Copy-24" fill-opacity="0.04" fill="#FFFFFF" mask="url(#mask-3)" x="27.3871497" y="182.093525" width="79.3741007" height="7.00359712" rx="3.50179856"></rect>
                        <rect id="Rectangle" fill="#FFFFFF" opacity="0.0464564732" mask="url(#mask-3)" x="126" y="0" width="521.901523" height="364.181761"></rect>
                        <rect id="Rectangle-Copy-5" fill-opacity="0.1" fill="#FFFFFF" mask="url(#mask-3)" x="155.246403" y="18.676259" width="39.803777" height="39.8012854" rx="7.98319729"></rect>
                        <g id="Group-21" mask="url(#mask-3)" fill="#FFFFFF">
                            <g transform="translate(208.940647, 23.345324)">
                                <rect id="Rectangle" fill-opacity="0.1" x="0" y="0" width="121.395683" height="12.4187156" rx="6.20935779"></rect>
                                <rect id="Rectangle-Copy" fill-opacity="0.04" x="0" y="21.0107914" width="98.0503597" height="7.96025707" rx="3.98012854"></rect>
                            </g>
                        </g>
                        <rect id="Rectangle-Copy-5" fill-opacity="0.05" fill="#FFFFFF" mask="url(#mask-3)" x="155.78643" y="112.057554" width="444.728417" height="27.8608998" rx="7.98319729"></rect>
                        <rect id="Rectangle-Copy-16" fill-opacity="0.1" fill="#FFFFFF" mask="url(#mask-3)" x="155.78643" y="158.746457" width="444.728417" height="27.8608998" rx="7.98319729"></rect>
                        <rect id="Rectangle-Copy-17" fill-opacity="0.05" fill="#FFFFFF" mask="url(#mask-3)" x="155.78643" y="205.435361" width="444.728417" height="27.8608998" rx="7.98319729"></rect>
                        <rect id="Rectangle-Copy-18" fill-opacity="0.05" fill="#FFFFFF" mask="url(#mask-3)" x="155.78643" y="252.124264" width="444.728417" height="27.8608998" rx="7.98319729"></rect>
                        <rect id="Rectangle-Copy-19" fill-opacity="0.05" fill="#FFFFFF" mask="url(#mask-3)" x="155.78643" y="298.813167" width="444.728417" height="27.8608998" rx="7.98319729"></rect>
                        <rect id="Rectangle-Copy-20" fill-opacity="0.05" fill="#FFFFFF" mask="url(#mask-3)" x="155.78643" y="345.502071" width="444.728417" height="27.8608998" rx="7.98319729"></rect>
                        <g id="symbol" mask="url(#mask-3)" fill-rule="nonzero">
                            <g transform="translate(29.936990, 29.850964)" id="Path">
                                <path d="M24.4485417,2.64642943e-13 C20.4872929,-0.00496880217 16.6626424,1.4433366 13.7033007,4.0689835 C13.5286683,4.22179201 13.346908,4.38170788 13.1865312,4.54517745 C16.3466234,7.58226942 18.1301175,11.7715734 18.1261346,16.1479629 C18.1261346,17.2097547 17.2629016,18.0705071 16.1980499,18.0705071 L24.4485417,18.0705071 C25.5120014,18.068547 26.3730922,17.2083685 26.3730922,16.1479629 L26.3730922,1.9332181 C26.3759059,1.42209829 26.1745142,0.930888399 25.8133908,0.568135366 C25.4522673,0.205382334 24.9611415,0.000949728112 24.4485417,2.64642943e-13 Z" fill="url(#linearGradient-4)"></path>
                                <path d="M13.1865312,4.54517745 C10.362223,1.8093278 6.63131435,0.1988898 2.69789301,0.0177812394 C2.44129024,1.28084491e-05 2.18468747,1.28084491e-05 1.9280847,1.28084491e-05 C0.864623174,1.28084491e-05 0.00196573295,0.858599559 0,1.91900335 L0,16.1337481 C0,17.19554 0.863232925,18.0562924 1.9280847,18.0562924 L16.1837942,18.0562924 C17.2486459,18.0562924 18.1118851,17.19554 18.1118851,16.1337481 C18.1157202,11.7643894 16.3378116,7.58124935 13.1865312,4.54517745 Z" fill="#FF2145"></path>
                                <path d="M19.1561189,16.1479629 L19.1561189,16.1479629 C19.1610703,11.5269319 17.1751256,7.12640309 13.7033007,4.06542981 C13.5286683,4.21823832 13.346908,4.3781542 13.1865312,4.54162376 C16.3475156,7.57957137 18.131087,11.77034 18.1261346,16.1479629 L18.1261346,16.1479629 C18.1261346,17.2097547 17.2629016,18.0705071 16.1980499,18.0705071 L17.2280249,18.0705071 C18.2928767,18.0705071 19.1561189,17.2097547 19.1561189,16.1479629 L19.1561189,16.1479629 Z" fill-opacity="0.16" fill="url(#linearGradient-5)"></path>
                            </g>
                        </g>
                    </g>
                    <g id="Group-28" filter="url(#filter-6)" transform="translate(199.758993, 151.018771)">
                        <rect id="Rectangle-Copy-2" fill="#181D23" x="0" y="0" width="320.998201" height="122.56295" rx="15.9663946"></rect>
                        <rect id="Rectangle-Copy-18" stroke-opacity="0.2" stroke="#FF2145" stroke-width="1.5" fill="#2F1D26" x="28.0143885" y="58.3633094" width="264.969424" height="33.8507194" rx="7.98319729"></rect>
                        <path d="M45.9030875,76.3737368 L45.9030875,75.5074064 L43.1046124,75.5074064 L43.1046124,76.3737368 L45.9030875,76.3737368 Z M48.9409433,79.183611 C49.7236804,79.183611 50.3316316,79.0259236 50.7647968,78.710549 C51.1979619,78.3951743 51.4145445,77.9468104 51.4145445,77.3654571 C51.4145445,76.9512904 51.284405,76.607418 51.0241259,76.33384 C50.7638468,76.060262 50.2632371,75.7885838 49.5222966,75.5188055 C48.98274,75.3174217 48.6179693,75.1635341 48.4279846,75.0571426 C48.2379998,74.9507512 48.1002609,74.8386602 48.0147678,74.7208696 C47.9292746,74.6030791 47.8865281,74.4605906 47.8865281,74.293404 C47.8865281,74.0464239 48.0005189,73.8526394 48.2285006,73.7120507 C48.4564823,73.571462 48.7946551,73.5011677 49.2430191,73.5011677 C49.7521781,73.5011677 50.3202325,73.6303573 50.9471821,73.8887365 L50.9471821,73.8887365 L51.2834551,73.1192984 C50.6413067,72.8457204 49.9839595,72.7089313 49.3114136,72.7089313 C48.5894716,72.7089313 48.0214172,72.8561695 47.6072505,73.1506458 C47.1930838,73.4451222 46.9860005,73.8469399 46.9860005,74.356099 C46.9860005,74.6410761 47.0458456,74.8861564 47.165536,75.0913399 C47.2852264,75.2965234 47.4676117,75.4798586 47.712692,75.6413457 C47.9577724,75.8028327 48.3709891,75.9918675 48.9523424,76.2084501 C49.5640933,76.4440312 49.9754102,76.6482647 50.1862932,76.8211508 C50.3971763,76.994037 50.5026178,77.2020702 50.5026178,77.4452507 C50.5026178,77.7682247 50.3696285,78.0085554 50.1036499,78.1662427 C49.8376713,78.3239301 49.4577018,78.4027737 48.9637415,78.4027737 C48.6445672,78.4027737 48.3130438,78.3590772 47.9691714,78.2716843 C47.6252991,78.1842913 47.303275,78.0646009 47.0030991,77.9126131 L47.0030991,77.9126131 L47.0030991,78.7903426 C47.4666618,79.0525215 48.1126099,79.183611 48.9409433,79.183611 Z M54.8342697,79.183611 C54.9938569,79.183611 55.1733924,79.1674623 55.3728764,79.1351649 C55.5723604,79.1028675 55.7233982,79.0620207 55.82599,79.0126247 L55.82599,79.0126247 L55.82599,78.2887829 C55.7347973,78.3153808 55.6113072,78.3410287 55.4555198,78.3657267 C55.2997323,78.3904247 55.1382453,78.4027737 54.9710587,78.4027737 C54.6594837,78.4027737 54.4144034,78.3020818 54.2358178,78.100698 C54.0572321,77.8993142 53.9679393,77.6105374 53.9679393,77.2343676 L53.9679393,77.2343676 L53.9679393,73.5581631 L55.7803936,73.5581631 L55.7803936,72.8229222 L53.9679393,72.8229222 L53.9679393,71.3752385 L53.4207833,71.3752385 L53.0218154,72.7089313 L52.1269873,73.1021997 L52.1269873,73.5581631 L53.0218154,73.5581631 L53.0218154,77.2742644 C53.0218154,78.5471621 53.6259668,79.183611 54.8342697,79.183611 Z M58.5902678,79.183611 C59.0538306,79.183611 59.4404495,79.1142665 59.7501246,78.9755777 C60.0597997,78.8368888 60.3704247,78.5718601 60.6819997,78.1804916 L60.6819997,78.1804916 L60.727596,78.1804916 L60.9156809,79.0696201 L61.6167246,79.0696201 L61.6167246,74.8063628 C61.6167246,74.0768214 61.437189,73.546764 61.0781179,73.2161906 C60.7190467,72.8856171 60.1671411,72.7203304 59.4224009,72.7203304 C59.0538306,72.7203304 58.6862101,72.7678266 58.3195396,72.862819 C57.952869,72.9578113 57.6156461,73.0889008 57.3078709,73.2560874 L57.3078709,73.2560874 L57.5985475,73.9799292 C58.2558947,73.6607548 58.8448474,73.5011677 59.3654055,73.5011677 C59.8289683,73.5011677 60.1661912,73.6180083 60.3770742,73.8516895 C60.5879573,74.0853707 60.6933988,74.4472916 60.6933988,74.9374522 L60.6933988,74.9374522 L60.6933988,75.3250211 L59.633284,75.3592183 C57.6156461,75.4200135 56.6068272,76.0811603 56.6068272,77.3426589 C56.6068272,77.9316116 56.7825631,78.3856751 57.1340349,78.7048495 C57.4855066,79.0240238 57.9709176,79.183611 58.5902678,79.183611 Z M58.7783527,78.4027737 C58.4059826,78.4027737 58.1162559,78.3134809 57.9091726,78.1348953 C57.7020892,77.9563096 57.5985475,77.6960305 57.5985475,77.354058 C57.5985475,76.9170931 57.7647842,76.595069 58.0972574,76.3879857 C58.4297307,76.1809023 58.9721371,76.0640617 59.7244767,76.0374638 L59.7244767,76.0374638 L60.6706006,75.997567 L60.6706006,76.5618217 C60.6706006,77.143175 60.5024641,77.5953386 60.1661912,77.9183127 C59.8299182,78.2412867 59.3673054,78.4027737 58.7783527,78.4027737 Z M65.4468168,79.183611 C65.6064039,79.183611 65.7859395,79.1674623 65.9854235,79.1351649 C66.1849074,79.1028675 66.3359453,79.0620207 66.4385371,79.0126247 L66.4385371,79.0126247 L66.4385371,78.2887829 C66.3473444,78.3153808 66.2238543,78.3410287 66.0680668,78.3657267 C65.9122794,78.3904247 65.7507923,78.4027737 65.5836058,78.4027737 C65.2720308,78.4027737 65.0269505,78.3020818 64.8483649,78.100698 C64.6697792,77.8993142 64.5804864,77.6105374 64.5804864,77.2343676 L64.5804864,77.2343676 L64.5804864,73.5581631 L66.3929407,73.5581631 L66.3929407,72.8229222 L64.5804864,72.8229222 L64.5804864,71.3752385 L64.0333304,71.3752385 L63.6343624,72.7089313 L62.7395343,73.1021997 L62.7395343,73.5581631 L63.6343624,73.5581631 L63.6343624,77.2742644 C63.6343624,78.5471621 64.2385139,79.183611 65.4468168,79.183611 Z M69.8924595,79.183611 C70.333224,79.183611 70.7255425,79.1019175 71.0694149,78.9385307 C71.4132872,78.7751438 71.6821156,78.5395627 71.8759001,78.2317875 L71.8759001,78.2317875 L71.9271959,78.2317875 L72.0639849,79.0696201 L72.8448222,79.0696201 L72.8448222,72.8229222 L71.8986982,72.8229222 L71.8986982,76.1058583 C71.8986982,76.9151933 71.7476604,77.4984464 71.4455846,77.8556177 C71.1435089,78.212789 70.6656973,78.3913746 70.0121498,78.3913746 C69.5181895,78.3913746 69.1553187,78.2659847 68.9235373,78.0152049 C68.691756,77.764425 68.5758653,77.3844556 68.5758653,76.8752965 L68.5758653,76.8752965 L68.5758653,72.8229222 L67.6183422,72.8229222 L67.6183422,76.9094937 C67.6183422,77.7036299 67.807377,78.2811835 68.1854467,78.6421545 C68.5635163,79.0031255 69.1325205,79.183611 69.8924595,79.183611 Z M76.4070359,79.183611 C77.189773,79.183611 77.7977241,79.0259236 78.2308893,78.710549 C78.6640545,78.3951743 78.8806371,77.9468104 78.8806371,77.3654571 C78.8806371,76.9512904 78.7504975,76.607418 78.4902185,76.33384 C78.2299394,76.060262 77.7293296,75.7885838 76.9883892,75.5188055 C76.4488325,75.3174217 76.0840618,75.1635341 75.8940771,75.0571426 C75.7040924,74.9507512 75.5663535,74.8386602 75.4808603,74.7208696 C75.3953672,74.6030791 75.3526206,74.4605906 75.3526206,74.293404 C75.3526206,74.0464239 75.4666115,73.8526394 75.6945931,73.7120507 C75.9225748,73.571462 76.2607476,73.5011677 76.7091116,73.5011677 C77.2182707,73.5011677 77.786325,73.6303573 78.4132746,73.8887365 L78.4132746,73.8887365 L78.7495476,73.1192984 C78.1073992,72.8457204 77.4500521,72.7089313 76.7775061,72.7089313 C76.0555641,72.7089313 75.4875098,72.8561695 75.0733431,73.1506458 C74.6591764,73.4451222 74.452093,73.8469399 74.452093,74.356099 C74.452093,74.6410761 74.5119382,74.8861564 74.6316286,75.0913399 C74.751319,75.2965234 74.9337043,75.4798586 75.1787846,75.6413457 C75.4238649,75.8028327 75.8370817,75.9918675 76.418435,76.2084501 C77.0301858,76.4440312 77.4415027,76.6482647 77.6523858,76.8211508 C77.8632689,76.994037 77.9687104,77.2020702 77.9687104,77.4452507 C77.9687104,77.7682247 77.8357211,78.0085554 77.5697424,78.1662427 C77.3037638,78.3239301 76.9237944,78.4027737 76.4298341,78.4027737 C76.1106597,78.4027737 75.7791364,78.3590772 75.435264,78.2716843 C75.0913916,78.1842913 74.7693675,78.0646009 74.4691916,77.9126131 L74.4691916,77.9126131 L74.4691916,78.7903426 C74.9327544,79.0525215 75.5787025,79.183611 76.4070359,79.183611 Z" id="-status" fill="#FFFFFF" fill-rule="nonzero"></path>
                        <path d="M32.6606093,41.8874192 C35.35893,41.8874192 36.4765776,40.785738 36.4765776,39.0294346 C36.4765776,37.6563247 35.8219554,36.618509 32.9639708,36.091618 C30.9522051,35.7243909 30.584978,35.2453991 30.584978,34.5588441 C30.584978,33.7924572 31.1597682,33.3453981 32.3732142,33.3453981 C33.7143914,33.3453981 34.1933832,33.9361547 34.4488455,35.0697688 L36.2530481,34.7185081 C35.9337202,33.0420366 34.9278373,31.8924562 32.4690126,31.8924562 C30.0101878,31.8924562 28.7967418,32.9462383 28.7967418,34.6546425 C28.7967418,36.1554836 29.6269943,37.1613664 32.2454831,37.5924591 C34.1295176,37.911787 34.6564086,38.3269133 34.6564086,39.1411994 C34.6564086,39.9235527 34.0496856,40.4025445 32.7244749,40.4025445 C31.271533,40.4025445 30.4093477,39.7479224 30.1698518,38.3907788 L28.4295147,38.7580059 C28.6690107,40.5302757 29.7706919,41.8714529 32.6606093,41.8874192 Z M40.6757394,41.8874192 C41.4261599,41.8874192 41.8093534,41.7916209 42.3681772,41.6159905 L42.1606141,40.0832167 C41.793387,40.1949814 41.4580927,40.2748134 41.0748993,40.2748134 C40.3244787,40.2748134 40.05305,39.8916199 40.05305,39.1571658 L40.05305,35.564727 L42.2564125,35.564727 L42.2564125,34.1756507 L40.05305,34.1756507 L40.05305,32.1479185 L38.3286794,32.1479185 L38.3286794,34.1756507 L37.2748974,34.1756507 L37.2748974,35.564727 L38.3286794,35.564727 L38.3286794,39.3966617 C38.3286794,40.8017044 39.0312008,41.8874192 40.6757394,41.8874192 Z M45.4177586,41.8395201 C46.7429693,41.8395201 47.6051546,41.1050659 47.9883481,39.8916199 L48.1639785,39.8916199 L48.1639785,41.6798561 L49.7925507,41.6798561 L49.7925507,36.8899377 C49.7925507,35.0218696 48.8664998,34.0000203 46.6950702,34.0000203 C44.7791028,34.0000203 43.7093544,34.9101048 43.4219593,36.3311139 L45.0505315,36.698341 C45.2421283,35.8201893 45.7530529,35.3731303 46.6312046,35.3731303 C47.6849866,35.3731303 48.0841465,35.9319541 48.0841465,36.9059041 L48.0841465,37.4168288 L45.8488512,37.4168288 C43.9488503,37.4168288 43.1345642,38.3907788 43.1345642,39.731956 C43.1345642,41.2008643 44.0765814,41.8395201 45.4177586,41.8395201 Z M46.0883472,40.4983429 C45.1143971,40.4983429 44.7791028,40.0353175 44.7791028,39.4924601 C44.7791028,38.8697707 45.274061,38.5504428 46.1362463,38.5504428 L48.0841465,38.5504428 L48.0841465,38.8538043 C48.0841465,39.7958216 47.2858268,40.4983429 46.0883472,40.4983429 Z M54.3110404,41.8874192 C55.0614609,41.8874192 55.4446544,41.7916209 56.0034782,41.6159905 L55.7959151,40.0832167 C55.428688,40.1949814 55.0933937,40.2748134 54.7102002,40.2748134 C53.9597797,40.2748134 53.688351,39.8916199 53.688351,39.1571658 L53.688351,35.564727 L55.8917134,35.564727 L55.8917134,34.1756507 L53.688351,34.1756507 L53.688351,32.1479185 L51.9639804,32.1479185 L51.9639804,34.1756507 L50.9101983,34.1756507 L50.9101983,35.564727 L51.9639804,35.564727 L51.9639804,39.3966617 C51.9639804,40.8017044 52.6665017,41.8874192 54.3110404,41.8874192 Z M59.4841522,41.8874192 C60.729531,41.8874192 61.6875147,41.0890995 62.1026409,39.7000232 L62.2623049,39.7000232 L62.2623049,41.6798561 L63.9387763,41.6798561 L63.9387763,34.1756507 L62.2144057,34.1756507 L62.2144057,38.4227116 C62.2144057,39.5563256 61.4639852,40.3227126 60.2984383,40.3227126 C59.2765891,40.3227126 58.8774292,39.652124 58.8774292,38.7420395 L58.8774292,34.1756507 L57.1530586,34.1756507 L57.1530586,39.1890986 C57.1530586,40.8176708 57.9034792,41.8874192 59.4841522,41.8874192 Z M68.6967619,41.8874192 C70.8522252,41.8874192 71.7782761,40.9933011 71.7782761,39.6042248 C71.7782761,38.4227116 71.1076875,37.6722911 68.8883586,37.2571648 C67.4673495,37.0017025 67.1480216,36.6344754 67.1480216,36.1075844 C67.1480216,35.5487606 67.5950807,35.2134663 68.4732324,35.2134663 C69.3673505,35.2134663 69.8144095,35.564727 70.0219727,36.4907779 L71.5707129,36.1554836 C71.2673514,34.8302728 70.5648301,33.9840539 68.5051652,33.9840539 C66.5093658,33.9840539 65.5194494,34.8462392 65.5194494,36.2033828 C65.5194494,37.4487615 66.2219707,38.1193501 68.2177701,38.51851 C69.7026448,38.7899387 70.117771,39.0773338 70.117771,39.6680904 C70.117771,40.3067462 69.6387792,40.6260741 68.7286947,40.6260741 C67.5152487,40.6260741 66.9883577,40.0512839 66.7488618,39.1411994 L65.2001215,39.4605273 C65.4715502,40.8975028 66.2698699,41.8874192 68.6967619,41.8874192 Z M80.3043308,41.8874192 C82.8429875,41.8874192 84.3757614,40.4823765 84.6950893,38.1672493 L82.9707187,37.8479214 C82.6513908,39.4445609 81.9169366,40.3067462 80.3043308,40.3067462 C78.372397,40.3067462 77.5102117,38.9815354 77.5102117,36.8739713 C77.5102117,34.9101048 78.372397,33.4890957 80.3202972,33.4890957 C81.8371046,33.4890957 82.6354244,34.3353146 82.9228195,35.8840549 L84.6631565,35.5487606 C84.3278622,33.2495998 82.8270211,31.8924562 80.35223,31.8924562 C77.4782789,31.8924562 75.6900427,33.7764908 75.6900427,36.8739713 C75.6900427,39.9714519 77.3665142,41.8874192 80.3043308,41.8874192 Z M89.4530749,41.8874192 C91.8320677,41.8874192 93.2371104,40.3706118 93.2371104,37.911787 C93.2371104,35.4369958 91.7522357,33.9840539 89.4530749,33.9840539 C87.1219813,33.9840539 85.6371066,35.4369958 85.6371066,37.911787 C85.6371066,40.3706118 87.0421493,41.8874192 89.4530749,41.8874192 Z M89.4371085,40.4025445 C88.000133,40.4025445 87.3614772,39.4445609 87.3614772,37.8958206 C87.3614772,36.3470803 88.0480321,35.4369958 89.4371085,35.4369958 C90.8261848,35.4369958 91.5287062,36.3470803 91.5287062,37.8958206 C91.5287062,39.4445609 90.8581176,40.4025445 89.4371085,40.4025445 Z M96.3026581,41.6798561 L96.3026581,37.4327952 C96.3026581,36.2991811 97.0690451,35.5327942 98.2186255,35.5327942 C99.2245084,35.5327942 99.655601,36.2033828 99.655601,37.1134673 L99.655601,41.6798561 L101.364005,41.6798561 L101.364005,37.4327952 C101.364005,36.2991811 102.098459,35.5327942 103.279973,35.5327942 C104.285855,35.5327942 104.700982,36.2033828 104.700982,37.1134673 L104.700982,41.6798561 L106.425352,41.6798561 L106.425352,36.6664082 C106.425352,35.037836 105.658965,33.9840539 104.078292,33.9840539 C102.689216,33.9840539 101.811064,34.79834 101.443837,36.2353156 L101.268207,36.2353156 C101.156442,34.8462392 100.453921,33.9840539 99.048878,33.9840539 C97.7715664,33.9840539 96.8295492,34.7504409 96.4144229,36.1554836 L96.2707254,36.1554836 L96.2707254,34.1756507 L94.5942539,34.1756507 L94.5942539,41.6798561 L96.3026581,41.6798561 Z M109.858127,41.6798561 L109.858127,37.4327952 C109.858127,36.2991811 110.624514,35.5327942 111.774095,35.5327942 C112.779977,35.5327942 113.21107,36.2033828 113.21107,37.1134673 L113.21107,41.6798561 L114.919474,41.6798561 L114.919474,37.4327952 C114.919474,36.2991811 115.653928,35.5327942 116.835442,35.5327942 C117.841324,35.5327942 118.256451,36.2033828 118.256451,37.1134673 L118.256451,41.6798561 L119.980821,41.6798561 L119.980821,36.6664082 C119.980821,35.037836 119.214434,33.9840539 117.633761,33.9840539 C116.244685,33.9840539 115.366533,34.79834 114.999306,36.2353156 L114.823676,36.2353156 C114.711911,34.8462392 114.00939,33.9840539 112.604347,33.9840539 C111.327035,33.9840539 110.385018,34.7504409 109.969892,36.1554836 L109.826194,36.1554836 L109.826194,34.1756507 L108.149723,34.1756507 L108.149723,41.6798561 L109.858127,41.6798561 Z M123.541327,41.8395201 C124.866538,41.8395201 125.728723,41.1050659 126.111917,39.8916199 L126.287547,39.8916199 L126.287547,41.6798561 L127.916119,41.6798561 L127.916119,36.8899377 C127.916119,35.0218696 126.990069,34.0000203 124.818639,34.0000203 C122.902672,34.0000203 121.832923,34.9101048 121.545528,36.3311139 L123.1741,36.698341 C123.365697,35.8201893 123.876622,35.3731303 124.754773,35.3731303 C125.808555,35.3731303 126.207715,35.9319541 126.207715,36.9059041 L126.207715,37.4168288 L123.97242,37.4168288 C122.072419,37.4168288 121.258133,38.3907788 121.258133,39.731956 C121.258133,41.2008643 122.20015,41.8395201 123.541327,41.8395201 Z M124.211916,40.4983429 C123.237966,40.4983429 122.902672,40.0353175 122.902672,39.4924601 C122.902672,38.8697707 123.39763,38.5504428 124.259815,38.5504428 L126.207715,38.5504428 L126.207715,38.8538043 C126.207715,39.7958216 125.409395,40.4983429 124.211916,40.4983429 Z M131.364861,41.6798561 L131.364861,37.4327952 C131.364861,36.2991811 132.131248,35.5327942 133.280828,35.5327942 C134.318644,35.5327942 134.717804,36.2033828 134.717804,37.1134673 L134.717804,41.6798561 L136.426208,41.6798561 L136.426208,36.6664082 C136.426208,35.037836 135.675787,33.9840539 134.111081,33.9840539 C132.849735,33.9840539 131.891752,34.7664073 131.476625,36.1554836 L131.332928,36.1554836 L131.332928,34.1756507 L129.656456,34.1756507 L129.656456,41.6798561 L131.364861,41.6798561 Z M140.433773,41.8874192 C141.77495,41.8874192 142.669068,40.9933011 143.052262,39.7000232 L143.164026,39.7000232 L143.164026,41.6798561 L144.87243,41.6798561 L144.87243,31.4294308 L143.164026,31.4294308 L143.164026,36.1395172 L143.052262,36.1395172 C142.669068,34.8302728 141.838816,33.9680875 140.481672,33.9840539 C138.725369,33.9680875 137.703519,35.3890966 137.703519,37.9596862 C137.703519,40.4983429 138.709402,41.8874192 140.433773,41.8874192 Z M141.248059,40.3546454 C139.970747,40.3546454 139.395957,39.572292 139.395957,37.9596862 C139.395957,36.3151475 140.00268,35.5327942 141.248059,35.5327942 C142.413606,35.5327942 143.164026,36.3949795 143.164026,37.6882575 L143.164026,38.2630477 C143.164026,39.5403592 142.397639,40.3546454 141.248059,40.3546454 Z M154.675797,41.6798561 L158.236303,32.1000194 L156.368235,32.1000194 L154.65983,37.0815345 C154.324536,38.0554845 153.973275,39.1411994 153.68588,40.0991831 L153.302687,40.0991831 C153.031258,39.1411994 152.679997,38.0554845 152.344703,37.0815345 L150.652265,32.1000194 L148.704365,32.1000194 L152.264871,41.6798561 L154.675797,41.6798561 Z M160.886724,41.8395201 C162.211935,41.8395201 163.07412,41.1050659 163.457314,39.8916199 L163.632944,39.8916199 L163.632944,41.6798561 L165.261516,41.6798561 L165.261516,36.8899377 C165.261516,35.0218696 164.335465,34.0000203 162.164036,34.0000203 C160.248068,34.0000203 159.17832,34.9101048 158.890925,36.3311139 L160.519497,36.698341 C160.711094,35.8201893 161.222019,35.3731303 162.10017,35.3731303 C163.153952,35.3731303 163.553112,35.9319541 163.553112,36.9059041 L163.553112,37.4168288 L161.317817,37.4168288 C159.417816,37.4168288 158.60353,38.3907788 158.60353,39.731956 C158.60353,41.2008643 159.545547,41.8395201 160.886724,41.8395201 Z M161.557313,40.4983429 C160.583363,40.4983429 160.248068,40.0353175 160.248068,39.4924601 C160.248068,38.8697707 160.743027,38.5504428 161.605212,38.5504428 L163.553112,38.5504428 L163.553112,38.8538043 C163.553112,39.7958216 162.754792,40.4983429 161.557313,40.4983429 Z M168.710258,41.6798561 L168.710258,38.1193501 C168.710258,36.5865762 169.269081,36.0277524 170.849754,36.0277524 L171.264881,36.0277524 L171.264881,34.0958187 L170.993452,34.0958187 C169.907737,34.0958187 169.205216,34.6227097 168.774123,36.4428787 L168.630426,36.4269123 L168.630426,34.1756507 L167.001853,34.1756507 L167.001853,41.6798561 L168.710258,41.6798561 Z M174.330429,32.8983391 L174.330429,31.5092628 L172.46236,31.5092628 L172.46236,32.8983391 L174.330429,32.8983391 Z M174.250597,41.6798561 L174.250597,34.1756507 L172.526226,34.1756507 L172.526226,41.6798561 L174.250597,41.6798561 Z M177.986733,41.8395201 C179.311944,41.8395201 180.174129,41.1050659 180.557322,39.8916199 L180.732953,39.8916199 L180.732953,41.6798561 L182.361525,41.6798561 L182.361525,36.8899377 C182.361525,35.0218696 181.435474,34.0000203 179.264044,34.0000203 C177.348077,34.0000203 176.278329,34.9101048 175.990934,36.3311139 L177.619506,36.698341 C177.811103,35.8201893 178.322027,35.3731303 179.200179,35.3731303 C180.253961,35.3731303 180.653121,35.9319541 180.653121,36.9059041 L180.653121,37.4168288 L178.417826,37.4168288 C176.517825,37.4168288 175.703538,38.3907788 175.703538,39.731956 C175.703538,41.2008643 176.645556,41.8395201 177.986733,41.8395201 Z M178.657321,40.4983429 C177.683371,40.4983429 177.348077,40.0353175 177.348077,39.4924601 C177.348077,38.8697707 177.843035,38.5504428 178.705221,38.5504428 L180.653121,38.5504428 L180.653121,38.8538043 C180.653121,39.7958216 179.854801,40.4983429 178.657321,40.4983429 Z M188.54052,41.8874192 C190.232958,41.8874192 191.270773,40.4983429 191.270773,37.9437198 C191.270773,35.3890966 190.280857,33.9840539 188.508587,33.9840539 C187.151443,33.9840539 186.321191,34.8302728 185.922031,36.1235508 L185.810266,36.1235508 L185.810266,31.4294308 L184.101862,31.4294308 L184.101862,41.6798561 L185.810266,41.6798561 L185.810266,39.6840568 L185.922031,39.6840568 C186.289258,40.9933011 187.16741,41.8874192 188.54052,41.8874192 Z M187.726234,40.3706118 C186.576653,40.3706118 185.810266,39.5084265 185.810266,38.2470813 L185.810266,37.6722911 C185.810266,36.3630467 186.560687,35.5327942 187.7422,35.5327942 C189.003545,35.5327942 189.578335,36.3151475 189.578335,37.9437198 C189.578335,39.5563256 188.987579,40.3706118 187.726234,40.3706118 Z M194.400186,41.6798561 L194.400186,31.4294308 L192.675816,31.4294308 L192.675816,41.6798561 L194.400186,41.6798561 Z M199.589265,41.8714529 C201.60103,41.8714529 202.543048,40.945402 202.894308,39.5882584 L201.4254,39.1731322 C201.217837,39.8916199 200.802711,40.4664101 199.605231,40.4664101 C198.32792,40.4664101 197.641365,39.7798552 197.513633,38.4227116 L202.926241,38.4227116 C202.958174,38.0395181 202.958174,37.7042239 202.958174,37.4168288 C202.958174,35.3571639 201.856493,33.9840539 199.589265,33.9840539 C197.242205,33.9840539 195.805229,35.484895 195.805229,38.0235518 C195.805229,40.5302757 197.290104,41.8714529 199.589265,41.8714529 Z M201.377501,37.2731312 L197.5296,37.2731312 C197.689264,35.9319541 198.375819,35.3092647 199.541366,35.3092647 C200.738845,35.3092647 201.313635,35.9798532 201.377501,37.2731312 Z" id="StatusCommandVariable" fill="#FFFFFF" fill-rule="nonzero"></path>
                        <path d="M277.756904,40.34665 L280.034444,40.0935775 L287.158855,32.9691671 C287.532731,32.5952914 287.532731,31.9888482 287.158855,31.6149725 L285.959661,30.4157784 C285.585785,30.0419027 284.979342,30.0419027 284.605466,30.4157784 L277.481056,37.5401888 L277.227983,39.8177293 C277.193786,40.1232106 277.451423,40.3808471 277.756904,40.34665 Z M285.540189,33.5550831 L284.01955,32.0344445 L285.122988,30.9310291 C285.211887,30.8398367 285.357804,30.8443785 285.444432,30.9310291 L286.643604,32.130201 C286.732526,32.2191225 286.732526,32.3650171 286.643604,32.4516455 L285.540189,33.5550831 Z M283.426799,41.8080001 C284.030949,41.8080001 284.521109,41.3178407 284.521109,40.7136907 L284.521109,36.9679651 C284.521109,36.8471396 284.375192,36.7855802 284.288564,36.8722086 L283.832601,37.3281708 C283.805239,37.3532399 283.791569,37.387437 283.791569,37.4239274 L283.791569,40.7136907 C283.791569,40.9143096 283.627418,41.0784605 283.426799,41.0784605 L275.401863,41.0784605 C275.201244,41.0784605 275.037094,40.9143096 275.037094,40.7136907 L275.037094,32.6887548 C275.037094,32.4881358 275.201244,32.323985 275.401863,32.323985 L281.609785,32.323985 C281.643982,32.323985 281.680473,32.3080218 281.705542,32.2829528 L282.161504,31.8269905 C282.248132,31.7426331 282.186573,31.5944453 282.065747,31.5944453 L275.401863,31.5944453 C274.797713,31.5944453 274.307554,32.0846048 274.307554,32.6887548 L274.307554,40.7136907 C274.307554,41.3178407 274.797713,41.8080001 275.401863,41.8080001 L283.426799,41.8080001 Z M277.989449,39.587455 L278.178669,37.8753256 L283.504322,32.5519661 L285.024938,34.0726047 L279.701579,39.3982351 L277.989449,39.587455 Z" id="e" fill="#FFFFFF" fill-rule="nonzero"></path>
                    </g>
                    <g id="Group-28-Copy" filter="url(#filter-7)" transform="translate(199.758993, 287.588915)">
                        <rect id="Rectangle-Copy-2" fill="#181D23" x="0" y="0" width="320.998201" height="122.56295" rx="15.9663946"></rect>
                        <rect id="Rectangle-Copy-18" fill-opacity="0.05" fill="#FFFFFF" x="28.0143885" y="58.3633094" width="264.969424" height="33.8507194" rx="7.98319729"></rect>
                        <path d="M45.9030875,76.3737368 L45.9030875,75.5074064 L43.1046124,75.5074064 L43.1046124,76.3737368 L45.9030875,76.3737368 Z M49.2658172,79.183611 C49.4254044,79.183611 49.60494,79.1674623 49.8044239,79.1351649 C50.0039079,79.1028675 50.1549458,79.0620207 50.2575375,79.0126247 L50.2575375,79.0126247 L50.2575375,78.2887829 C50.1663448,78.3153808 50.0428548,78.3410287 49.8870673,78.3657267 C49.7312798,78.3904247 49.5697928,78.4027737 49.4026062,78.4027737 C49.0910313,78.4027737 48.845951,78.3020818 48.6673653,78.100698 C48.4887797,77.8993142 48.3994869,77.6105374 48.3994869,77.2343676 L48.3994869,77.2343676 L48.3994869,73.5581631 L50.2119412,73.5581631 L50.2119412,72.8229222 L48.3994869,72.8229222 L48.3994869,71.3752385 L47.8523308,71.3752385 L47.4533629,72.7089313 L46.5585348,73.1021997 L46.5585348,73.5581631 L47.4533629,73.5581631 L47.4533629,77.2742644 C47.4533629,78.5471621 48.0575143,79.183611 49.2658172,79.183611 Z M51.9844987,71.7628074 C52.1364865,71.7628074 52.267576,71.7105616 52.3777671,71.60607 C52.4879583,71.5015784 52.5430538,71.3429411 52.5430538,71.1301582 C52.5430538,70.9173753 52.4879583,70.759688 52.3777671,70.6570963 C52.267576,70.5545045 52.1364865,70.5032086 51.9844987,70.5032086 C51.8249115,70.5032086 51.6919222,70.5535546 51.5855308,70.6542465 C51.4791393,70.7549384 51.4259436,70.9135756 51.4259436,71.1301582 C51.4259436,71.3429411 51.4791393,71.5015784 51.5855308,71.60607 C51.6919222,71.7105616 51.8249115,71.7628074 51.9844987,71.7628074 Z M52.4518612,79.0696201 L52.4518612,72.8229222 L51.5057372,72.8229222 L51.5057372,79.0696201 L52.4518612,79.0696201 Z M56.9544993,79.183611 C57.5890483,79.183611 58.115306,79.0753197 58.5332724,78.8587371 L58.5332724,78.8587371 L58.5332724,78.0209044 C57.9861164,78.2450864 57.4522593,78.3571774 56.9317011,78.3571774 C56.32375,78.3571774 55.8649369,78.1519939 55.5552617,77.7416269 C55.2455866,77.3312598 55.0907491,76.7423072 55.0907491,75.9747689 C55.0907491,74.356099 55.7252981,73.546764 56.9943961,73.546764 C57.1843808,73.546764 57.4028633,73.5743118 57.6498434,73.6294074 C57.8968236,73.6845029 58.1248052,73.7538474 58.3337884,73.8374406 L58.3337884,73.8374406 L58.6244651,73.0338052 C58.4534788,72.9464123 58.2178977,72.8704184 57.9177219,72.8058236 C57.617546,72.7412287 57.3173701,72.7089313 57.0171942,72.7089313 C56.0862691,72.7089313 55.3690767,72.9939084 54.8656172,73.5638626 C54.3621576,74.1338168 54.1104279,74.9412519 54.1104279,75.986168 C54.1104279,77.0044861 54.3583579,77.7919728 54.8542181,78.3486281 C55.3500782,78.9052833 56.050172,79.183611 56.9544993,79.183611 Z M60.9498782,79.0696201 L60.9498782,76.7328079 L61.6623209,76.1172574 L63.8680436,79.0696201 L65.0136516,79.0696201 L62.3063692,75.4846083 L64.8369658,72.8229222 L63.714156,72.8229222 L61.6965182,74.9602504 C61.362145,75.3364202 61.113265,75.6403957 60.9498782,75.8721771 L60.9498782,75.8721771 L60.9042818,75.8721771 C60.9346794,75.4352122 60.9498782,75.1122382 60.9498782,74.903255 L60.9498782,74.903255 L60.9498782,70.2011329 L60.0151533,70.2011329 L60.0151533,79.0696201 L60.9498782,79.0696201 Z M68.7810488,79.183611 C69.2028149,79.183611 69.562836,79.1522635 69.861112,79.0895685 C70.159388,79.0268736 70.4757126,78.9233319 70.8100857,78.7789435 L70.8100857,78.7789435 L70.8100857,77.9354113 C70.1527385,78.2165887 69.487792,78.3571774 68.815246,78.3571774 C68.1768973,78.3571774 67.6819871,78.1671927 67.3305154,77.7872232 C66.9790436,77.4072537 66.7938085,76.8505985 66.77481,76.1172574 L66.77481,76.1172574 L71.0779642,76.1172574 L71.0779642,75.5188055 C71.0779642,74.6752733 70.8499825,73.9960779 70.3940192,73.4812193 C69.9380558,72.9663607 69.3187056,72.7089313 68.5359685,72.7089313 C67.7000357,72.7089313 67.0341392,73.0053075 66.538279,73.5980599 C66.0424189,74.1908122 65.7944888,74.990648 65.7944888,75.997567 C65.7944888,76.9968867 66.0614174,77.777724 66.5952745,78.3400788 C67.1291316,78.9024336 67.857723,79.183611 68.7810488,79.183611 Z M70.0634457,75.3478193 L66.7976082,75.3478193 C66.8508039,74.7702657 67.0265398,74.318102 67.3248158,73.9913283 C67.6230919,73.6645545 68.0230097,73.5011677 68.5245694,73.5011677 C69.0185297,73.5011677 69.3984992,73.6598049 69.6644778,73.9770794 C69.9304564,74.2943539 70.0634457,74.7512672 70.0634457,75.3478193 L70.0634457,75.3478193 Z M74.5717834,79.183611 C74.7313706,79.183611 74.9109061,79.1674623 75.1103901,79.1351649 C75.3098741,79.1028675 75.4609119,79.0620207 75.5635037,79.0126247 L75.5635037,79.0126247 L75.5635037,78.2887829 C75.472311,78.3153808 75.3488209,78.3410287 75.1930335,78.3657267 C75.037246,78.3904247 74.875759,78.4027737 74.7085724,78.4027737 C74.3969974,78.4027737 74.1519171,78.3020818 73.9733315,78.100698 C73.7947458,77.8993142 73.705453,77.6105374 73.705453,77.2343676 L73.705453,77.2343676 L73.705453,73.5581631 L75.5179073,73.5581631 L75.5179073,72.8229222 L73.705453,72.8229222 L73.705453,71.3752385 L73.158297,71.3752385 L72.7593291,72.7089313 L71.864501,73.1021997 L71.864501,73.5581631 L72.7593291,73.5581631 L72.7593291,77.2742644 C72.7593291,78.5471621 73.3634805,79.183611 74.5717834,79.183611 Z" id="-ticket" fill="#FFFFFF" fill-rule="nonzero"></path>
                        <path d="M33.01187,41.6798561 L33.01187,33.7764908 L35.965653,33.7764908 L35.965653,32.1000194 L28.237918,32.1000194 L28.237918,33.7764908 L31.191701,33.7764908 L31.191701,41.6798561 L33.01187,41.6798561 Z M38.9833016,32.8983391 L38.9833016,31.5092628 L37.1152334,31.5092628 L37.1152334,32.8983391 L38.9833016,32.8983391 Z M38.9034696,41.6798561 L38.9034696,34.1756507 L37.179099,34.1756507 L37.179099,41.6798561 L38.9034696,41.6798561 Z M44.1883462,41.8874192 C46.2480111,41.8874192 47.3017932,40.8336372 47.6051546,39.0933002 L46.0244816,38.7101067 C45.8009521,39.6201912 45.3858258,40.3706118 44.1723798,40.3706118 C42.8312027,40.3706118 42.1286813,39.4445609 42.1286813,37.9277534 C42.1286813,36.2832147 42.8950682,35.5008614 44.1244806,35.5008614 C45.3059938,35.5008614 45.7530529,36.1395172 45.9765824,37.0975009 L47.5891883,36.7941394 C47.2858268,35.0059032 46.3118767,33.9840539 44.1564134,33.9840539 C41.8572526,33.9840539 40.3723779,35.4689286 40.3723779,37.991619 C40.3723779,40.5143093 41.8253198,41.8874192 44.1883462,41.8874192 Z M50.7665008,41.6798561 L50.7665008,38.5344764 L51.4530557,38.5344764 L54.0236453,41.6798561 L55.9875118,41.6798561 L55.9875118,41.5042258 L52.8101993,37.8638878 L55.7799487,34.351281 L55.7799487,34.1756507 L53.8160821,34.1756507 L51.4530557,37.2571648 L50.7665008,37.2571648 L50.7665008,31.4294308 L49.0421302,31.4294308 L49.0421302,41.6798561 L50.7665008,41.6798561 Z M60.1866736,41.8714529 C62.1984393,41.8714529 63.1404566,40.945402 63.4917173,39.5882584 L62.022809,39.1731322 C61.8152458,39.8916199 61.4001196,40.4664101 60.20264,40.4664101 C58.9253284,40.4664101 58.2387734,39.7798552 58.1110423,38.4227116 L63.5236501,38.4227116 C63.5555828,38.0395181 63.5555828,37.7042239 63.5555828,37.4168288 C63.5555828,35.3571639 62.4539016,33.9840539 60.1866736,33.9840539 C57.8396136,33.9840539 56.4026381,35.484895 56.4026381,38.0235518 C56.4026381,40.5302757 57.8875128,41.8714529 60.1866736,41.8714529 Z M61.9749098,37.2731312 L58.1270087,37.2731312 C58.2866726,35.9319541 58.9732276,35.3092647 60.1387744,35.3092647 C61.336254,35.3092647 61.9110442,35.9798532 61.9749098,37.2731312 Z M67.7228118,41.8874192 C68.4732324,41.8874192 68.8564258,41.7916209 69.4152497,41.6159905 L69.2076865,40.0832167 C68.8404595,40.1949814 68.5051652,40.2748134 68.1219717,40.2748134 C67.3715512,40.2748134 67.1001224,39.8916199 67.1001224,39.1571658 L67.1001224,35.564727 L69.3034849,35.564727 L69.3034849,34.1756507 L67.1001224,34.1756507 L67.1001224,32.1479185 L65.3757518,32.1479185 L65.3757518,34.1756507 L64.3219698,34.1756507 L64.3219698,35.564727 L65.3757518,35.564727 L65.3757518,39.3966617 C65.3757518,40.8017044 66.0782732,41.8874192 67.7228118,41.8874192 Z M77.8295396,41.8874192 C80.3681963,41.8874192 81.9009702,40.4823765 82.2202981,38.1672493 L80.4959275,37.8479214 C80.1765996,39.4445609 79.4421455,40.3067462 77.8295396,40.3067462 C75.8976059,40.3067462 75.0354206,38.9815354 75.0354206,36.8739713 C75.0354206,34.9101048 75.8976059,33.4890957 77.845506,33.4890957 C79.3623135,33.4890957 80.1606332,34.3353146 80.4480283,35.8840549 L82.1883653,35.5487606 C81.853071,33.2495998 80.35223,31.8924562 77.8774388,31.8924562 C75.0034878,31.8924562 73.2152516,33.7764908 73.2152516,36.8739713 C73.2152516,39.9714519 74.891723,41.8874192 77.8295396,41.8874192 Z M86.9782837,41.8874192 C89.3572765,41.8874192 90.7623192,40.3706118 90.7623192,37.911787 C90.7623192,35.4369958 89.2774445,33.9840539 86.9782837,33.9840539 C84.6471901,33.9840539 83.1623154,35.4369958 83.1623154,37.911787 C83.1623154,40.3706118 84.5673581,41.8874192 86.9782837,41.8874192 Z M86.9623173,40.4025445 C85.5253418,40.4025445 84.886686,39.4445609 84.886686,37.8958206 C84.886686,36.3470803 85.573241,35.4369958 86.9623173,35.4369958 C88.3513936,35.4369958 89.053915,36.3470803 89.053915,37.8958206 C89.053915,39.4445609 88.3833264,40.4025445 86.9623173,40.4025445 Z M93.827867,41.6798561 L93.827867,37.4327952 C93.827867,36.2991811 94.5942539,35.5327942 95.7438343,35.5327942 C96.7497172,35.5327942 97.1808098,36.2033828 97.1808098,37.1134673 L97.1808098,41.6798561 L98.8892141,41.6798561 L98.8892141,37.4327952 C98.8892141,36.2991811 99.6236682,35.5327942 100.805181,35.5327942 C101.811064,35.5327942 102.226191,36.2033828 102.226191,37.1134673 L102.226191,41.6798561 L103.950561,41.6798561 L103.950561,36.6664082 C103.950561,35.037836 103.184174,33.9840539 101.603501,33.9840539 C100.214425,33.9840539 99.3362731,34.79834 98.969046,36.2353156 L98.7934157,36.2353156 C98.6816509,34.8462392 97.9791296,33.9840539 96.5740869,33.9840539 C95.2967753,33.9840539 94.354758,34.7504409 93.9396317,36.1554836 L93.7959342,36.1554836 L93.7959342,34.1756507 L92.1194628,34.1756507 L92.1194628,41.6798561 L93.827867,41.6798561 Z M107.383336,41.6798561 L107.383336,37.4327952 C107.383336,36.2991811 108.149723,35.5327942 109.299303,35.5327942 C110.305186,35.5327942 110.736279,36.2033828 110.736279,37.1134673 L110.736279,41.6798561 L112.444683,41.6798561 L112.444683,37.4327952 C112.444683,36.2991811 113.179137,35.5327942 114.36065,35.5327942 C115.366533,35.5327942 115.78166,36.2033828 115.78166,37.1134673 L115.78166,41.6798561 L117.50603,41.6798561 L117.50603,36.6664082 C117.50603,35.037836 116.739643,33.9840539 115.15897,33.9840539 C113.769894,33.9840539 112.891742,34.79834 112.524515,36.2353156 L112.348885,36.2353156 C112.23712,34.8462392 111.534599,33.9840539 110.129556,33.9840539 C108.852244,33.9840539 107.910227,34.7504409 107.495101,36.1554836 L107.351403,36.1554836 L107.351403,34.1756507 L105.674932,34.1756507 L105.674932,41.6798561 L107.383336,41.6798561 Z M121.066536,41.8395201 C122.391747,41.8395201 123.253932,41.1050659 123.637126,39.8916199 L123.812756,39.8916199 L123.812756,41.6798561 L125.441328,41.6798561 L125.441328,36.8899377 C125.441328,35.0218696 124.515277,34.0000203 122.343848,34.0000203 C120.42788,34.0000203 119.358132,34.9101048 119.070737,36.3311139 L120.699309,36.698341 C120.890906,35.8201893 121.40183,35.3731303 122.279982,35.3731303 C123.333764,35.3731303 123.732924,35.9319541 123.732924,36.9059041 L123.732924,37.4168288 L121.497629,37.4168288 C119.597628,37.4168288 118.783342,38.3907788 118.783342,39.731956 C118.783342,41.2008643 119.725359,41.8395201 121.066536,41.8395201 Z M121.737125,40.4983429 C120.763175,40.4983429 120.42788,40.0353175 120.42788,39.4924601 C120.42788,38.8697707 120.922839,38.5504428 121.785024,38.5504428 L123.732924,38.5504428 L123.732924,38.8538043 C123.732924,39.7958216 122.934604,40.4983429 121.737125,40.4983429 Z M128.89007,41.6798561 L128.89007,37.4327952 C128.89007,36.2991811 129.656456,35.5327942 130.806037,35.5327942 C131.843853,35.5327942 132.243012,36.2033828 132.243012,37.1134673 L132.243012,41.6798561 L133.951417,41.6798561 L133.951417,36.6664082 C133.951417,35.037836 133.200996,33.9840539 131.636289,33.9840539 C130.374944,33.9840539 129.416961,34.7664073 129.001834,36.1554836 L128.858137,36.1554836 L128.858137,34.1756507 L127.181665,34.1756507 L127.181665,41.6798561 L128.89007,41.6798561 Z M137.958982,41.8874192 C139.300159,41.8874192 140.194277,40.9933011 140.57747,39.7000232 L140.689235,39.7000232 L140.689235,41.6798561 L142.397639,41.6798561 L142.397639,31.4294308 L140.689235,31.4294308 L140.689235,36.1395172 L140.57747,36.1395172 C140.194277,34.8302728 139.364024,33.9680875 138.006881,33.9840539 C136.250577,33.9680875 135.228728,35.3890966 135.228728,37.9596862 C135.228728,40.4983429 136.234611,41.8874192 137.958982,41.8874192 Z M138.773268,40.3546454 C137.495956,40.3546454 136.921166,39.572292 136.921166,37.9596862 C136.921166,36.3151475 137.527889,35.5327942 138.773268,35.5327942 C139.938815,35.5327942 140.689235,36.3949795 140.689235,37.6882575 L140.689235,38.2630477 C140.689235,39.5403592 139.922848,40.3546454 138.773268,40.3546454 Z M152.201006,41.6798561 L155.761512,32.1000194 L153.893443,32.1000194 L152.185039,37.0815345 C151.849745,38.0554845 151.498484,39.1411994 151.211089,40.0991831 L150.827896,40.0991831 C150.556467,39.1411994 150.205206,38.0554845 149.869912,37.0815345 L148.177474,32.1000194 L146.229574,32.1000194 L149.79008,41.6798561 L152.201006,41.6798561 Z M158.411933,41.8395201 C159.737144,41.8395201 160.599329,41.1050659 160.982523,39.8916199 L161.158153,39.8916199 L161.158153,41.6798561 L162.786725,41.6798561 L162.786725,36.8899377 C162.786725,35.0218696 161.860674,34.0000203 159.689245,34.0000203 C157.773277,34.0000203 156.703529,34.9101048 156.416134,36.3311139 L158.044706,36.698341 C158.236303,35.8201893 158.747227,35.3731303 159.625379,35.3731303 C160.679161,35.3731303 161.078321,35.9319541 161.078321,36.9059041 L161.078321,37.4168288 L158.843026,37.4168288 C156.943025,37.4168288 156.128739,38.3907788 156.128739,39.731956 C156.128739,41.2008643 157.070756,41.8395201 158.411933,41.8395201 Z M159.082522,40.4983429 C158.108572,40.4983429 157.773277,40.0353175 157.773277,39.4924601 C157.773277,38.8697707 158.268236,38.5504428 159.130421,38.5504428 L161.078321,38.5504428 L161.078321,38.8538043 C161.078321,39.7958216 160.280001,40.4983429 159.082522,40.4983429 Z M166.235466,41.6798561 L166.235466,38.1193501 C166.235466,36.5865762 166.79429,36.0277524 168.374963,36.0277524 L168.79009,36.0277524 L168.79009,34.0958187 L168.518661,34.0958187 C167.432946,34.0958187 166.730425,34.6227097 166.299332,36.4428787 L166.155634,36.4269123 L166.155634,34.1756507 L164.527062,34.1756507 L164.527062,41.6798561 L166.235466,41.6798561 Z M171.855637,32.8983391 L171.855637,31.5092628 L169.987569,31.5092628 L169.987569,32.8983391 L171.855637,32.8983391 Z M171.775805,41.6798561 L171.775805,34.1756507 L170.051435,34.1756507 L170.051435,41.6798561 L171.775805,41.6798561 Z M175.511942,41.8395201 C176.837152,41.8395201 177.699338,41.1050659 178.082531,39.8916199 L178.258162,39.8916199 L178.258162,41.6798561 L179.886734,41.6798561 L179.886734,36.8899377 C179.886734,35.0218696 178.960683,34.0000203 176.789253,34.0000203 C174.873286,34.0000203 173.803537,34.9101048 173.516142,36.3311139 L175.144715,36.698341 C175.336311,35.8201893 175.847236,35.3731303 176.725388,35.3731303 C177.77917,35.3731303 178.17833,35.9319541 178.17833,36.9059041 L178.17833,37.4168288 L175.943034,37.4168288 C174.043033,37.4168288 173.228747,38.3907788 173.228747,39.731956 C173.228747,41.2008643 174.170765,41.8395201 175.511942,41.8395201 Z M176.18253,40.4983429 C175.20858,40.4983429 174.873286,40.0353175 174.873286,39.4924601 C174.873286,38.8697707 175.368244,38.5504428 176.230429,38.5504428 L178.17833,38.5504428 L178.17833,38.8538043 C178.17833,39.7958216 177.38001,40.4983429 176.18253,40.4983429 Z M186.065729,41.8874192 C187.758166,41.8874192 188.795982,40.4983429 188.795982,37.9437198 C188.795982,35.3890966 187.806066,33.9840539 186.033796,33.9840539 C184.676652,33.9840539 183.8464,34.8302728 183.44724,36.1235508 L183.335475,36.1235508 L183.335475,31.4294308 L181.627071,31.4294308 L181.627071,41.6798561 L183.335475,41.6798561 L183.335475,39.6840568 L183.44724,39.6840568 C183.814467,40.9933011 184.692619,41.8874192 186.065729,41.8874192 Z M185.251442,40.3706118 C184.101862,40.3706118 183.335475,39.5084265 183.335475,38.2470813 L183.335475,37.6722911 C183.335475,36.3630467 184.085896,35.5327942 185.267409,35.5327942 C186.528754,35.5327942 187.103544,36.3151475 187.103544,37.9437198 C187.103544,39.5563256 186.512788,40.3706118 185.251442,40.3706118 Z M191.925395,41.6798561 L191.925395,31.4294308 L190.201025,31.4294308 L190.201025,41.6798561 L191.925395,41.6798561 Z M197.114474,41.8714529 C199.126239,41.8714529 200.068257,40.945402 200.419517,39.5882584 L198.950609,39.1731322 C198.743046,39.8916199 198.32792,40.4664101 197.13044,40.4664101 C195.853128,40.4664101 195.166573,39.7798552 195.038842,38.4227116 L200.45145,38.4227116 C200.483383,38.0395181 200.483383,37.7042239 200.483383,37.4168288 C200.483383,35.3571639 199.381702,33.9840539 197.114474,33.9840539 C194.767414,33.9840539 193.330438,35.484895 193.330438,38.0235518 C193.330438,40.5302757 194.815313,41.8714529 197.114474,41.8714529 Z M198.90271,37.2731312 L195.054809,37.2731312 C195.214473,35.9319541 195.901028,35.3092647 197.066574,35.3092647 C198.264054,35.3092647 198.838844,35.9798532 198.90271,37.2731312 Z" id="TicketCommandVariable" fill="#FFFFFF" fill-rule="nonzero"></path>
                        <path d="M277.756904,40.34665 L280.034444,40.0935775 L287.158855,32.9691671 C287.532731,32.5952914 287.532731,31.9888482 287.158855,31.6149725 L285.959661,30.4157784 C285.585785,30.0419027 284.979342,30.0419027 284.605466,30.4157784 L277.481056,37.5401888 L277.227983,39.8177293 C277.193786,40.1232106 277.451423,40.3808471 277.756904,40.34665 Z M285.540189,33.5550831 L284.01955,32.0344445 L285.122988,30.9310291 C285.211887,30.8398367 285.357804,30.8443785 285.444432,30.9310291 L286.643604,32.130201 C286.732526,32.2191225 286.732526,32.3650171 286.643604,32.4516455 L285.540189,33.5550831 Z M283.426799,41.8080001 C284.030949,41.8080001 284.521109,41.3178407 284.521109,40.7136907 L284.521109,36.9679651 C284.521109,36.8471396 284.375192,36.7855802 284.288564,36.8722086 L283.832601,37.3281708 C283.805239,37.3532399 283.791569,37.387437 283.791569,37.4239274 L283.791569,40.7136907 C283.791569,40.9143096 283.627418,41.0784605 283.426799,41.0784605 L275.401863,41.0784605 C275.201244,41.0784605 275.037094,40.9143096 275.037094,40.7136907 L275.037094,32.6887548 C275.037094,32.4881358 275.201244,32.323985 275.401863,32.323985 L281.609785,32.323985 C281.643982,32.323985 281.680473,32.3080218 281.705542,32.2829528 L282.161504,31.8269905 C282.248132,31.7426331 282.186573,31.5944453 282.065747,31.5944453 L275.401863,31.5944453 C274.797713,31.5944453 274.307554,32.0846048 274.307554,32.6887548 L274.307554,40.7136907 C274.307554,41.3178407 274.797713,41.8080001 275.401863,41.8080001 L283.426799,41.8080001 Z M277.989449,39.587455 L278.178669,37.8753256 L283.504322,32.5519661 L285.024938,34.0726047 L279.701579,39.3982351 L277.989449,39.587455 Z" id="e" fill="#FFFFFF" fill-rule="nonzero"></path>
                    </g>
                    <g id="Group-27" transform="translate(78.206835, 26.019497)">
                        <rect id="Rectangle" fill="#FFFFFF" x="0" y="0" width="236.955036" height="77.0395683" rx="9.3381295"></rect>
                        <g id="Group-9" transform="translate(23.345324, 16.341727)" fill-rule="nonzero">
                            <path d="M3.24966906,19 L3.24966906,14.3682878 L8.66578417,14.3682878 L8.66578417,19 L10.7948777,19 L10.7948777,7.7942446 L8.66578417,7.7942446 L8.66578417,12.4633094 L3.24966906,12.4633094 L3.24966906,7.7942446 L1.12057554,7.7942446 L1.12057554,19 L3.24966906,19 Z M16.9020144,19.2241151 C19.255223,19.2241151 20.3571223,18.1408921 20.768,16.5534101 L19.0497842,16.0678273 C18.8069928,16.908259 18.3214101,17.5806043 16.9206906,17.5806043 C15.4265899,17.5806043 14.6235108,16.7775252 14.4741007,15.1900432 L20.8053525,15.1900432 C20.842705,14.7418129 20.842705,14.3496115 20.842705,14.0134388 C20.842705,11.6042014 19.5540432,9.99804317 16.9020144,9.99804317 C14.1566043,9.99804317 12.475741,11.7536115 12.475741,14.7231367 C12.475741,17.6553094 14.2126331,19.2241151 16.9020144,19.2241151 Z M18.9937554,13.8453525 L14.492777,13.8453525 C14.6795396,12.2765468 15.4826187,11.5481727 16.8459856,11.5481727 C18.246705,11.5481727 18.9190504,12.3325755 18.9937554,13.8453525 Z M24.5406043,19 L24.5406043,7.00984173 L22.5235683,7.00984173 L22.5235683,19 L24.5406043,19 Z M28.6867338,21.8387914 L28.6867338,16.6654676 L28.8174676,16.6654676 C29.2470216,18.1969209 30.2742158,19.2427914 31.8803741,19.2427914 C33.8600576,19.2427914 35.0740144,17.6179568 35.0740144,14.6297554 C35.0740144,11.641554 33.9160863,9.99804317 31.8430216,9.99804317 C30.2555396,9.99804317 29.2843741,10.9878849 28.8174676,12.5006619 L28.6867338,12.5006619 L28.6867338,10.2221583 L26.6883741,10.2221583 L26.6883741,21.8387914 L28.6867338,21.8387914 Z M30.9278849,17.4685468 C29.5831942,17.4685468 28.6867338,16.4600288 28.6867338,14.9846043 L28.6867338,14.312259 C28.6867338,12.7808058 29.564518,11.8096403 30.9465612,11.8096403 C32.4219856,11.8096403 33.0943309,12.724777 33.0943309,14.6297554 C33.0943309,16.5160576 32.4033094,17.4685468 30.9278849,17.4685468 Z M40.5835108,19.2241151 C42.9367194,19.2241151 44.0386187,18.1408921 44.4494964,16.5534101 L42.7312806,16.0678273 C42.4884892,16.908259 42.0029065,17.5806043 40.6021871,17.5806043 C39.1080863,17.5806043 38.3050072,16.7775252 38.1555971,15.1900432 L44.4868489,15.1900432 C44.5242014,14.7418129 44.5242014,14.3496115 44.5242014,14.0134388 C44.5242014,11.6042014 43.2355396,9.99804317 40.5835108,9.99804317 C37.8381007,9.99804317 36.1572374,11.7536115 36.1572374,14.7231367 C36.1572374,17.6553094 37.8941295,19.2241151 40.5835108,19.2241151 Z M42.6752518,13.8453525 L38.1742734,13.8453525 C38.361036,12.2765468 39.1641151,11.5481727 40.527482,11.5481727 C41.9282014,11.5481727 42.6005468,12.3325755 42.6752518,13.8453525 Z M48.1473957,19 L48.1473957,14.8351942 C48.1473957,13.0422734 48.8010647,12.3886043 50.6500144,12.3886043 L51.1355971,12.3886043 L51.1355971,10.128777 L50.8181007,10.128777 C49.5481151,10.128777 48.7263597,10.7450935 48.2221007,12.8741871 L48.0540144,12.8555108 L48.0540144,10.2221583 L46.149036,10.2221583 L46.149036,19 L48.1473957,19 Z M54.3852662,19 L54.3852662,16.7214964 L52.0507338,16.7214964 L52.0507338,19 L54.3852662,19 Z M59.4652086,22.2123165 C62.9389928,22.2123165 64.0782446,21.3532086 64.0782446,19.578964 C64.0782446,18.2155971 63.1817842,17.412518 61.3328345,17.412518 C60.3803453,17.412518 59.3718273,17.4311942 58.3819856,17.4311942 C57.8030216,17.4311942 57.5228777,17.3004604 57.5228777,16.9456115 C57.5228777,16.7588489 57.616259,16.6094388 57.7469928,16.3853237 L57.9524317,16.0678273 C58.3819856,16.1798849 58.8675683,16.2359137 59.4278561,16.2359137 C61.874446,16.2359137 63.2004604,15.2834245 63.2004604,13.7146187 C63.2004604,12.5566906 62.229295,12.0711079 61.0713669,11.8469928 L61.0900432,11.6789065 C61.8370935,11.7349353 62.3973813,11.7722878 62.8642878,11.7722878 L63.8728058,11.7722878 L63.8728058,10.2221583 L59.5212374,10.2221583 C57.0933237,10.2221583 55.6552518,11.3053813 55.6552518,13.2850647 C55.6552518,14.6110791 56.3462734,15.5635683 57.6536115,15.9931223 L56.9812662,16.3666475 C56.3649496,16.6654676 55.9914245,17.0763453 55.9914245,17.5432518 C55.9914245,18.1595683 56.4023022,18.570446 57.186705,18.7198561 L57.186705,18.7945612 C55.9914245,19.0560288 55.1696691,19.6163165 55.1696691,20.3820432 C55.1696691,21.5026187 56.1408345,22.2123165 59.4652086,22.2123165 Z M59.4465324,14.8538705 C57.9897842,14.8538705 57.4668489,14.2562302 57.4668489,13.3224173 C57.4668489,12.4072806 58.0271367,11.790964 59.4278561,11.790964 C60.8098993,11.790964 61.4822446,12.3886043 61.4822446,13.3224173 C61.4822446,14.2562302 60.9032806,14.8538705 59.4465324,14.8538705 Z M59.5772662,20.7555683 C57.2987626,20.7555683 56.7384748,20.4567482 56.7384748,19.7470504 C56.7384748,19.2614676 57.2240576,18.7758849 58.1765468,18.7758849 L61.2581295,18.7758849 C62.1172374,18.7758849 62.4720863,19.1307338 62.4720863,19.6349928 C62.4720863,20.3820432 61.9304748,20.7555683 59.5772662,20.7555683 Z M68.8220144,22.2123165 C72.2957986,22.2123165 73.4350504,21.3532086 73.4350504,19.578964 C73.4350504,18.2155971 72.5385899,17.412518 70.6896403,17.412518 C69.7371511,17.412518 68.7286331,17.4311942 67.7387914,17.4311942 C67.1598273,17.4311942 66.8796835,17.3004604 66.8796835,16.9456115 C66.8796835,16.7588489 66.9730647,16.6094388 67.1037986,16.3853237 L67.3092374,16.0678273 C67.7387914,16.1798849 68.2243741,16.2359137 68.7846619,16.2359137 C71.2312518,16.2359137 72.5572662,15.2834245 72.5572662,13.7146187 C72.5572662,12.5566906 71.5861007,12.0711079 70.4281727,11.8469928 L70.4468489,11.6789065 C71.1938993,11.7349353 71.7541871,11.7722878 72.2210935,11.7722878 L73.2296115,11.7722878 L73.2296115,10.2221583 L68.8780432,10.2221583 C66.4501295,10.2221583 65.0120576,11.3053813 65.0120576,13.2850647 C65.0120576,14.6110791 65.7030791,15.5635683 67.0104173,15.9931223 L66.3380719,16.3666475 C65.7217554,16.6654676 65.3482302,17.0763453 65.3482302,17.5432518 C65.3482302,18.1595683 65.7591079,18.570446 66.5435108,18.7198561 L66.5435108,18.7945612 C65.3482302,19.0560288 64.5264748,19.6163165 64.5264748,20.3820432 C64.5264748,21.5026187 65.4976403,22.2123165 68.8220144,22.2123165 Z M68.8033381,14.8538705 C67.3465899,14.8538705 66.8236547,14.2562302 66.8236547,13.3224173 C66.8236547,12.4072806 67.3839424,11.790964 68.7846619,11.790964 C70.166705,11.790964 70.8390504,12.3886043 70.8390504,13.3224173 C70.8390504,14.2562302 70.2600863,14.8538705 68.8033381,14.8538705 Z M68.9340719,20.7555683 C66.6555683,20.7555683 66.0952806,20.4567482 66.0952806,19.7470504 C66.0952806,19.2614676 66.5808633,18.7758849 67.5333525,18.7758849 L70.6149353,18.7758849 C71.4740432,18.7758849 71.8288921,19.1307338 71.8288921,19.6349928 C71.8288921,20.3820432 71.2872806,20.7555683 68.9340719,20.7555683 Z" id="Helper.gg" fill="#181D23"></path>
                            <path d="M6.3312518,39.6798561 L6.3312518,37.5507626 L7.73197122,37.5507626 L7.73197122,36.8784173 L6.3312518,36.8784173 L6.3312518,31.2755396 L5.49082014,31.2755396 L0.36418705,36.9064317 L0.36418705,37.5507626 L5.57486331,37.5507626 L5.57486331,39.6798561 L6.3312518,39.6798561 Z M1.28866187,37.004482 L1.2186259,36.8784173 L5.50482734,32.1579928 L5.57486331,32.172 L5.57486331,36.8784173 L3.85197842,36.8784173 C3.19364029,36.8784173 2.12909353,36.934446 1.28866187,37.004482 Z M12.1302302,39.8199281 C14.3013453,39.8199281 15.2398273,38.881446 15.2398273,37.4246978 C15.2398273,36.2340863 14.7355683,35.631777 13.1107338,35.4776978 L13.1107338,35.3516331 C14.2173022,35.0714892 14.8196115,34.4271583 14.8196115,33.3486043 C14.8196115,31.8358273 13.8811295,31.1354676 12.0882086,31.1354676 C10.2112446,31.1354676 9.27276259,32.172 8.97861151,33.7408058 L9.72099281,33.8668705 C9.9871295,32.5642014 10.6594748,31.8078129 12.1022158,31.8078129 C13.4188921,31.8078129 14.063223,32.2700504 14.063223,33.4746691 C14.063223,34.6512734 13.1807698,35.1135108 12.1722518,35.1135108 L10.7995468,35.1135108 L10.7995468,35.7578417 L12.2282806,35.7578417 C13.9931871,35.7578417 14.4694317,36.3041223 14.4694317,37.3966835 C14.4694317,38.4892446 13.6430072,39.1475827 12.1302302,39.1475827 C10.4073453,39.1475827 9.58092086,38.3351655 9.30077698,36.8223885 L8.53038129,36.9484532 C8.86655396,38.7974029 10.0291511,39.8199281 12.1302302,39.8199281 Z M19.7361367,39.8199281 C21.8652302,39.8199281 22.929777,38.6993525 22.929777,36.9764676 C22.929777,35.2115612 21.6411151,34.5252086 20.1423453,34.5252086 C18.4474748,34.5252086 17.4669712,35.2395755 17.1448058,36.4722086 L17.018741,36.4722086 C17.0047338,36.1640504 17.0047338,35.9539424 17.0047338,35.7438345 C17.0047338,33.1244892 17.8871871,31.8078129 19.8061727,31.8078129 C21.1928849,31.8078129 21.7811871,32.4941655 22.0613309,33.8388561 L22.789705,33.7127914 C22.495554,32.0879568 21.7531727,31.1354676 19.8061727,31.1354676 C17.2428561,31.1354676 16.3043741,33.0544532 16.3043741,35.7018129 C16.3043741,38.7553813 17.6910863,39.8199281 19.7361367,39.8199281 Z M19.7781583,39.1475827 C18.097295,39.1475827 17.1728201,38.2371151 17.1728201,37.1305468 C17.1728201,36.1220288 18.0832878,35.1415252 19.974259,35.1415252 C21.346964,35.1415252 22.1593813,35.6878058 22.1593813,36.9624604 C22.1593813,38.2791367 21.5150504,39.1475827 19.7781583,39.1475827 Z M27.7762662,39.8199281 C29.639223,39.8199281 30.8578489,38.9935036 30.8578489,37.1165396 C30.8578489,35.4636906 29.8073094,34.6652806 27.9443525,34.6652806 C26.9218273,34.6652806 26.0954029,34.987446 25.5631295,35.3516331 L25.5631295,31.8778489 C26.683705,31.9338777 28.2244964,31.9899065 30.3956115,31.9899065 L30.3956115,31.2755396 L24.8487626,31.2755396 L24.8487626,35.6457842 L25.5211079,35.8979137 C25.9553309,35.6037626 26.8798058,35.2956043 27.7902734,35.2956043 C29.3450719,35.2956043 30.0874532,35.8839065 30.0874532,37.1165396 C30.0874532,38.5312662 29.3170576,39.1475827 27.7902734,39.1475827 C26.2354748,39.1475827 25.381036,38.3911942 24.876777,37.144554 L24.1484029,37.438705 C24.8487626,39.091554 25.9833453,39.8199281 27.7762662,39.8199281 Z M35.3821727,39.8199281 C37.7774029,39.8199281 38.7158849,38.9234676 38.7158849,37.508741 C38.7158849,36.570259 38.1555971,35.7018129 36.3906906,35.5057122 L36.3906906,35.3516331 C37.6233237,35.1135108 38.2956691,34.4411655 38.2956691,33.3486043 C38.2956691,32.0319281 37.3992086,31.1354676 35.3821727,31.1354676 C33.3791439,31.1354676 32.4826835,32.0319281 32.4686763,33.3486043 C32.4546691,34.4411655 33.1410216,35.1135108 34.3736547,35.3516331 L34.3736547,35.5057122 C32.6087482,35.7018129 32.0484604,36.570259 32.0484604,37.508741 C32.0484604,38.9234676 32.9869424,39.8199281 35.3821727,39.8199281 Z M35.3821727,35.1555324 C34.1635468,35.1415252 33.2250647,34.6512734 33.2390719,33.4606619 C33.2390719,32.4801583 33.8273741,31.8078129 35.3821727,31.8078129 C36.9369712,31.8078129 37.5392806,32.4801583 37.5392806,33.4606619 C37.5392806,34.6512734 36.6007986,35.1415252 35.3821727,35.1555324 Z M35.3821727,39.1475827 C33.6452806,39.1475827 32.8188561,38.5312662 32.8188561,37.4807266 C32.8188561,36.6543022 33.3091079,35.7578417 35.3821727,35.7578417 C37.4552374,35.7578417 37.9454892,36.6543022 37.9454892,37.4807266 C37.9454892,38.5312662 37.1190647,39.1475827 35.3821727,39.1475827 Z M42.6939281,39.6798561 C42.9320504,36.9204388 44.0246115,34.2310576 46.2657626,31.9899065 L46.2657626,31.2755396 L39.4302518,31.2755396 L39.4302518,31.9899065 L42.4137842,31.9899065 C43.3942878,31.9899065 44.6129137,31.9338777 45.5513957,31.8638417 C43.408295,34.0209496 42.1056259,36.9624604 41.8675036,39.6798561 L42.6939281,39.6798561 Z M52.7370863,39.6798561 L52.7370863,37.5507626 L54.1378058,37.5507626 L54.1378058,36.8784173 L52.7370863,36.8784173 L52.7370863,31.2755396 L51.8966547,31.2755396 L46.7700216,36.9064317 L46.7700216,37.5507626 L51.9806978,37.5507626 L51.9806978,39.6798561 L52.7370863,39.6798561 Z M47.6944964,37.004482 L47.6244604,36.8784173 L51.9106619,32.1579928 L51.9806978,32.172 L51.9806978,36.8784173 L50.2578129,36.8784173 C49.5994748,36.8784173 48.5349281,36.934446 47.6944964,37.004482 Z M58.5360647,39.8199281 C60.7071799,39.8199281 61.6456619,38.881446 61.6456619,37.4246978 C61.6456619,36.2340863 61.1414029,35.631777 59.5165683,35.4776978 L59.5165683,35.3516331 C60.6231367,35.0714892 61.225446,34.4271583 61.225446,33.3486043 C61.225446,31.8358273 60.286964,31.1354676 58.4940432,31.1354676 C56.6170791,31.1354676 55.6785971,32.172 55.384446,33.7408058 L56.1268273,33.8668705 C56.392964,32.5642014 57.0653094,31.8078129 58.5080504,31.8078129 C59.8247266,31.8078129 60.4690576,32.2700504 60.4690576,33.4746691 C60.4690576,34.6512734 59.5866043,35.1135108 58.5780863,35.1135108 L57.2053813,35.1135108 L57.2053813,35.7578417 L58.6341151,35.7578417 C60.3990216,35.7578417 60.8752662,36.3041223 60.8752662,37.3966835 C60.8752662,38.4892446 60.0488417,39.1475827 58.5360647,39.1475827 C56.8131799,39.1475827 55.9867554,38.3351655 55.7066115,36.8223885 L54.9362158,36.9484532 C55.2723885,38.7974029 56.4349856,39.8199281 58.5360647,39.8199281 Z M66.1419712,39.8199281 C68.2710647,39.8199281 69.3356115,38.6993525 69.3356115,36.9764676 C69.3356115,35.2115612 68.0469496,34.5252086 66.5481799,34.5252086 C64.8533094,34.5252086 63.8728058,35.2395755 63.5506403,36.4722086 L63.4245755,36.4722086 C63.4105683,36.1640504 63.4105683,35.9539424 63.4105683,35.7438345 C63.4105683,33.1244892 64.2930216,31.8078129 66.2120072,31.8078129 C67.5987194,31.8078129 68.1870216,32.4941655 68.4671655,33.8388561 L69.1955396,33.7127914 C68.9013885,32.0879568 68.1590072,31.1354676 66.2120072,31.1354676 C63.6486906,31.1354676 62.7102086,33.0544532 62.7102086,35.7018129 C62.7102086,38.7553813 64.0969209,39.8199281 66.1419712,39.8199281 Z M66.1839928,39.1475827 C64.5031295,39.1475827 63.5786547,38.2371151 63.5786547,37.1305468 C63.5786547,36.1220288 64.4891223,35.1415252 66.3800935,35.1415252 C67.7527986,35.1415252 68.5652158,35.6878058 68.5652158,36.9624604 C68.5652158,38.2791367 67.9208849,39.1475827 66.1839928,39.1475827 Z M74.1821007,39.8199281 C76.0450576,39.8199281 77.2636835,38.9935036 77.2636835,37.1165396 C77.2636835,35.4636906 76.2131439,34.6652806 74.3501871,34.6652806 C73.3276619,34.6652806 72.5012374,34.987446 71.968964,35.3516331 L71.968964,31.8778489 C73.0895396,31.9338777 74.6303309,31.9899065 76.801446,31.9899065 L76.801446,31.2755396 L71.2545971,31.2755396 L71.2545971,35.6457842 L71.9269424,35.8979137 C72.3611655,35.6037626 73.2856403,35.2956043 74.1961079,35.2956043 C75.7509065,35.2956043 76.4932878,35.8839065 76.4932878,37.1165396 C76.4932878,38.5312662 75.7228921,39.1475827 74.1961079,39.1475827 C72.6413094,39.1475827 71.7868705,38.3911942 71.2826115,37.144554 L70.5542374,37.438705 C71.2545971,39.091554 72.3891799,39.8199281 74.1821007,39.8199281 Z M81.7880072,39.8199281 C84.1832374,39.8199281 85.1217194,38.9234676 85.1217194,37.508741 C85.1217194,36.570259 84.5614317,35.7018129 82.7965252,35.5057122 L82.7965252,35.3516331 C84.0291583,35.1135108 84.7015036,34.4411655 84.7015036,33.3486043 C84.7015036,32.0319281 83.8050432,31.1354676 81.7880072,31.1354676 C79.7849784,31.1354676 78.888518,32.0319281 78.8745108,33.3486043 C78.8605036,34.4411655 79.5468561,35.1135108 80.7794892,35.3516331 L80.7794892,35.5057122 C79.0145827,35.7018129 78.454295,36.570259 78.454295,37.508741 C78.454295,38.9234676 79.392777,39.8199281 81.7880072,39.8199281 Z M81.7880072,35.1555324 C80.5693813,35.1415252 79.6308993,34.6512734 79.6449065,33.4606619 C79.6449065,32.4801583 80.2332086,31.8078129 81.7880072,31.8078129 C83.3428058,31.8078129 83.9451151,32.4801583 83.9451151,33.4606619 C83.9451151,34.6512734 83.0066331,35.1415252 81.7880072,35.1555324 Z M81.7880072,39.1475827 C80.0511151,39.1475827 79.2246906,38.5312662 79.2246906,37.4807266 C79.2246906,36.6543022 79.7149424,35.7578417 81.7880072,35.7578417 C83.8610719,35.7578417 84.3513237,36.6543022 84.3513237,37.4807266 C84.3513237,38.5312662 83.5248993,39.1475827 81.7880072,39.1475827 Z M89.0997626,39.6798561 C89.3378849,36.9204388 90.430446,34.2310576 92.6715971,31.9899065 L92.6715971,31.2755396 L85.8360863,31.2755396 L85.8360863,31.9899065 L88.8196187,31.9899065 C89.8001223,31.9899065 91.0187482,31.9338777 91.9572302,31.8638417 C89.8141295,34.0209496 88.5114604,36.9624604 88.2733381,39.6798561 L89.0997626,39.6798561 Z M99.1429209,39.6798561 L99.1429209,37.5507626 L100.54364,37.5507626 L100.54364,36.8784173 L99.1429209,36.8784173 L99.1429209,31.2755396 L98.3024892,31.2755396 L93.1758561,36.9064317 L93.1758561,37.5507626 L98.3865324,37.5507626 L98.3865324,39.6798561 L99.1429209,39.6798561 Z M94.1003309,37.004482 L94.030295,36.8784173 L98.3164964,32.1579928 L98.3865324,32.172 L98.3865324,36.8784173 L96.6636475,36.8784173 C96.0053094,36.8784173 94.9407626,36.934446 94.1003309,37.004482 Z M104.941899,39.8199281 C107.113014,39.8199281 108.051496,38.881446 108.051496,37.4246978 C108.051496,36.2340863 107.547237,35.631777 105.922403,35.4776978 L105.922403,35.3516331 C107.028971,35.0714892 107.631281,34.4271583 107.631281,33.3486043 C107.631281,31.8358273 106.692799,31.1354676 104.899878,31.1354676 C103.022914,31.1354676 102.084432,32.172 101.790281,33.7408058 L102.532662,33.8668705 C102.798799,32.5642014 103.471144,31.8078129 104.913885,31.8078129 C106.230561,31.8078129 106.874892,32.2700504 106.874892,33.4746691 C106.874892,34.6512734 105.992439,35.1135108 104.983921,35.1135108 L103.611216,35.1135108 L103.611216,35.7578417 L105.03995,35.7578417 C106.804856,35.7578417 107.281101,36.3041223 107.281101,37.3966835 C107.281101,38.4892446 106.454676,39.1475827 104.941899,39.1475827 C103.219014,39.1475827 102.39259,38.3351655 102.112446,36.8223885 L101.34205,36.9484532 C101.678223,38.7974029 102.84082,39.8199281 104.941899,39.8199281 Z M112.547806,39.8199281 C114.676899,39.8199281 115.741446,38.6993525 115.741446,36.9764676 C115.741446,35.2115612 114.452784,34.5252086 112.954014,34.5252086 C111.259144,34.5252086 110.27864,35.2395755 109.956475,36.4722086 L109.83041,36.4722086 C109.816403,36.1640504 109.816403,35.9539424 109.816403,35.7438345 C109.816403,33.1244892 110.698856,31.8078129 112.617842,31.8078129 C114.004554,31.8078129 114.592856,32.4941655 114.873,33.8388561 L115.601374,33.7127914 C115.307223,32.0879568 114.564842,31.1354676 112.617842,31.1354676 C110.054525,31.1354676 109.116043,33.0544532 109.116043,35.7018129 C109.116043,38.7553813 110.502755,39.8199281 112.547806,39.8199281 Z M112.589827,39.1475827 C110.908964,39.1475827 109.984489,38.2371151 109.984489,37.1305468 C109.984489,36.1220288 110.894957,35.1415252 112.785928,35.1415252 C114.158633,35.1415252 114.97105,35.6878058 114.97105,36.9624604 C114.97105,38.2791367 114.326719,39.1475827 112.589827,39.1475827 Z M120.587935,39.8199281 C122.450892,39.8199281 123.669518,38.9935036 123.669518,37.1165396 C123.669518,35.4636906 122.618978,34.6652806 120.756022,34.6652806 C119.733496,34.6652806 118.907072,34.987446 118.374799,35.3516331 L118.374799,31.8778489 C119.495374,31.9338777 121.036165,31.9899065 123.207281,31.9899065 L123.207281,31.2755396 L117.660432,31.2755396 L117.660432,35.6457842 L118.332777,35.8979137 C118.767,35.6037626 119.691475,35.2956043 120.601942,35.2956043 C122.156741,35.2956043 122.899122,35.8839065 122.899122,37.1165396 C122.899122,38.5312662 122.128727,39.1475827 120.601942,39.1475827 C119.047144,39.1475827 118.192705,38.3911942 117.688446,37.144554 L116.960072,37.438705 C117.660432,39.091554 118.795014,39.8199281 120.587935,39.8199281 Z" id="4365874365874365" fill="#5E4D50"></path>
                        </g>
                        <path d="M205.852858,42.5200624 L212.587421,35.7822893 C212.740618,35.6323027 212.740618,35.389712 212.5906,35.2396942 L212.364,35.0130934 C212.213982,34.8630756 211.971391,34.8630756 211.821405,35.0130934 L205.58474,41.2529371 L199.344897,35.0130934 C199.194879,34.8630756 198.952319,34.8630756 198.802301,35.0130934 L198.575701,35.2396942 C198.425683,35.389712 198.425683,35.6323027 198.575701,35.7822893 L205.310263,42.5200624 C205.46025,42.6700803 205.702841,42.6700803 205.852858,42.5200624 Z" id="c" fill="#181D23" fill-rule="nonzero"></path>
                    </g>
                </g>
            </g>
        </g>
    </g>
</svg>