<svg xmlns="http://www.w3.org/2000/svg" xmlns:xlink="http://www.w3.org/1999/xlink" viewBox="0 0 473.42 83.56"><defs><style>.cls-1{fill:url(#linear-gradient);}.cls-2{fill:#ff2145;}.cls-3{opacity:0.16;}.cls-4{fill:url(#linear-gradient-2);}.cls-5{fill:#f5f0f1;}</style><linearGradient id="linear-gradient" x1="74" y1="41.42" x2="37" y2="41.42" gradientUnits="userSpaceOnUse"><stop offset="0" stop-color="#ff2145"/><stop offset="1" stop-color="#b42145"/></linearGradient><linearGradient id="linear-gradient-2" x1="37" y1="47.15" x2="53.75" y2="47.15" gradientUnits="userSpaceOnUse"><stop offset="0" stop-color="#0000e5"/><stop offset="0"/><stop offset="1" stop-opacity="0.3"/></linearGradient></defs><g id="Layer_2" data-name="Layer 2"><g id="Layer_1-2" data-name="Layer 1"><path class="cls-1" d="M68.6,16A45.27,45.27,0,0,0,38.45,27.45c-.49.43-1,.88-1.45,1.34A45.29,45.29,0,0,1,50.86,61.44a5.41,5.41,0,0,1-5.41,5.41H68.6A5.41,5.41,0,0,0,74,61.44v-40A5.41,5.41,0,0,0,68.6,16Z"/><path class="cls-2" d="M37,28.79A45.23,45.23,0,0,0,7.57,16.05C6.85,16,6.13,16,5.41,16A5.41,5.41,0,0,0,0,21.4v40a5.41,5.41,0,0,0,5.41,5.41h40a5.41,5.41,0,0,0,5.41-5.41A45.29,45.29,0,0,0,37,28.79Z"/><g class="cls-3"><path class="cls-4" d="M53.75,61.44h0a45.32,45.32,0,0,0-15.3-34c-.49.43-1,.88-1.45,1.34A45.29,45.29,0,0,1,50.86,61.44h0a5.41,5.41,0,0,1-5.41,5.41h2.89A5.41,5.41,0,0,0,53.75,61.44Z"/></g><path class="cls-5" d="M108.5,66.9H99L99.06,0h9.5l0,29.68h.11c2.19-10.37,8.85-15,17.8-15,13.2,0,17.78,8.74,17.77,19.65l0,32.63h-9.5l0-30.23c0-7-2.93-13.42-12.21-13.43-8.73,0-14,4.9-14,13.41Z"/><path class="cls-5" d="M149.66,41.84c0-17,10.39-27.16,25.88-27.15,15.17,0,23.34,9.73,23.33,23.7,0,1.63,0,3.71-.22,6.11l-39.5,0c1,9.93,6.75,15.39,16.46,15.4,9.17,0,12.77-4.68,14.52-10.68l8.4,2.52c-2.62,10-9.94,16.47-22.93,16.46C159.89,68.14,149.64,58.53,149.66,41.84Zm9.71-4.8,30.56,0c-.65-9.06-5.34-14.19-14.72-14.2C166.48,22.86,160.69,27.55,159.37,37Z"/><path class="cls-5" d="M214.34,67h-9.49L204.91.09h9.49Z"/><path class="cls-5" d="M252.1,68.33c-11.24,0-17.13-6.23-19.19-16.49h-.11l0,30.22h-9.49l.06-66h9.49l0,15H233c2.19-10.15,8.2-16.25,19-16.24C265.78,14.77,273,25,273,41.4,273,58.09,265.3,68.34,252.1,68.33Zm11.48-26.94c0-11.46-4.79-18-15-18-9.6,0-15.71,6.32-15.72,17.67v.76c0,10.91,6.09,18,15.69,18C258.43,59.83,263.57,53.07,263.58,41.39Z"/><path class="cls-5" d="M276.12,42c0-17,10.39-27.16,25.89-27.15,15.17,0,23.34,9.73,23.33,23.7,0,1.64,0,3.71-.22,6.11l-39.5,0c1,9.93,6.75,15.39,16.46,15.39,9.16,0,12.77-4.68,14.52-10.68l8.4,2.52c-2.63,10-9.94,16.47-22.93,16.46C286.36,68.25,276.11,58.64,276.12,42Zm9.72-4.79,30.55,0c-.64-9-5.33-14.19-14.71-14.2C293,23,287.16,27.66,285.84,37.16Z"/><path class="cls-5" d="M331.32,67.09l0-50.95h9.49V31.86h.22C343.14,20,348,16.15,356.13,16.16h3.17V26.64H354.7c-9.6,0-13.86,3.7-13.87,13.52l0,26.95Z"/><path class="cls-2" d="M367.19,56.84v8.79a1.5,1.5,0,0,1-1.5,1.49h-8.89a1.51,1.51,0,0,1-1.5-1.51h0a10.27,10.27,0,0,1,10.29-10.27h.11A1.5,1.5,0,0,1,367.19,56.84Z"/><path class="cls-5" d="M397.25,83.52c-19.54,0-25.1-4.06-25.09-10.61,0-4.36,4-7.74,11.79-8.82-4.15-.66-7-2.85-7-6.56,0-2.51,2.3-4.91,5.79-6.32l3.93-2.07c-7.42-2.41-11.45-7.87-11.44-15.4,0-11.35,8-17.56,21.62-17.55l24.55,0V24.4H414.1c-2.62,0-5-.11-8.84-.33v.22c6.88,1.2,12,4.15,12,11.68,0,9.5-7.33,14.51-21.19,14.5a35.23,35.23,0,0,1-8.72-1.1l-1.43,2.07c-.76,1.31-1.42,2-1.42,3,0,2.08,1.75,3,4.91,3,6.22,0,13-.31,18.77-.31,10.15,0,14.73,4.49,14.72,12.13C422.89,78.74,416.45,83.54,397.25,83.52ZM415,69.24c0-2.62-1.63-4.91-6.43-4.92h-20c-6.22,0-8.84,2.94-8.84,5.88,0,4.37,3.59,6,17.23,6C411.87,76.22,415,73.93,415,69.24ZM383.87,34.08c0,6.11,3.48,9.71,12.43,9.72S409,40.32,409,34.1s-4.35-9.93-12.86-9.94S383.87,28,383.87,34.08Z"/><path class="cls-5" d="M447.77,83.56c-19.53,0-25.1-4.06-25.09-10.6,0-4.37,4-7.75,11.79-8.83-4.14-.66-7-2.84-7-6.55,0-2.51,2.3-4.91,5.79-6.33l3.93-2.07c-7.41-2.4-11.45-7.86-11.44-15.39,0-11.35,8-17.56,21.62-17.55l24.55,0v8.18h-7.31c-2.62,0-5-.12-8.84-.34v.22c6.88,1.21,12,4.16,12,11.69,0,9.49-7.33,14.5-21.18,14.49a34.39,34.39,0,0,1-8.73-1.1l-1.42,2.07c-.77,1.31-1.42,2-1.42,3.06,0,2.07,1.74,2.95,4.9,2.95,6.22,0,13-.32,18.77-.31,10.15,0,14.73,4.48,14.72,12.12C473.41,78.79,467,83.58,447.77,83.56Zm17.8-14.27c0-2.62-1.64-4.92-6.44-4.92l-20,0c-6.22,0-8.84,2.94-8.84,5.89,0,4.36,3.6,6,17.24,6C462.4,76.27,465.56,74,465.57,69.29ZM434.39,34.12c0,6.11,3.48,9.72,12.43,9.72s12.66-3.48,12.67-9.7-4.36-9.93-12.87-9.94S434.4,28,434.39,34.12Z"/></g></g></svg>